{"nbformat":4,"nbformat_minor":0,"metadata":{"colab":{"provenance":[],"machine_shape":"hm","gpuType":"L4","authorship_tag":"ABX9TyMojJP5xV9Um/Fl8r/kh/YP"},"kernelspec":{"name":"python3","display_name":"Python 3"},"language_info":{"name":"python"},"accelerator":"GPU"},"cells":[{"cell_type":"code","source":["from google.colab import drive\n","drive.mount('/content/drive')"],"metadata":{"colab":{"base_uri":"https://localhost:8080/"},"id":"0Kw3WOR0s7b3","executionInfo":{"status":"ok","timestamp":1718317993691,"user_tz":300,"elapsed":14955,"user":{"displayName":"Sreesh Reddy","userId":"16534911298415659040"}},"outputId":"b06a1af5-278d-45ba-93f0-933560237056"},"execution_count":2,"outputs":[{"output_type":"stream","name":"stdout","text":["Mounted at /content/drive\n"]}]},{"cell_type":"code","source":["cd drive/MyDrive"],"metadata":{"colab":{"base_uri":"https://localhost:8080/"},"id":"c-7mujrASvg3","executionInfo":{"status":"ok","timestamp":1718318002811,"user_tz":300,"elapsed":145,"user":{"displayName":"Sreesh Reddy","userId":"16534911298415659040"}},"outputId":"12eec7a8-ef9c-4b79-fa5c-48c115edbe18"},"execution_count":3,"outputs":[{"output_type":"stream","name":"stdout","text":["/content/drive/MyDrive\n"]}]},{"cell_type":"code","source":["cd CV-Project"],"metadata":{"colab":{"base_uri":"https://localhost:8080/"},"id":"QBFqMY61SxgE","executionInfo":{"status":"ok","timestamp":1718318003497,"user_tz":300,"elapsed":3,"user":{"displayName":"Sreesh Reddy","userId":"16534911298415659040"}},"outputId":"f002673e-a7c7-4139-a2e1-5bde53170da0"},"execution_count":4,"outputs":[{"output_type":"stream","name":"stdout","text":["/content/drive/MyDrive/CV-Project\n"]}]},{"cell_type":"code","source":["!pip install ultralytics"],"metadata":{"colab":{"base_uri":"https://localhost:8080/"},"id":"E2AC7frESzVS","executionInfo":{"status":"ok","timestamp":1718318068869,"user_tz":300,"elapsed":64433,"user":{"displayName":"Sreesh Reddy","userId":"16534911298415659040"}},"outputId":"e3cc17e7-d6ba-4f5f-a61b-686b5ca3cb64"},"execution_count":5,"outputs":[{"output_type":"stream","name":"stdout","text":["Collecting ultralytics\n","  Downloading ultralytics-8.2.31-py3-none-any.whl (780 kB)\n","\u001b[2K     \u001b[90m━━━━━━━━━━━━━━━━━━━━━━━━━━━━━━━━━━━━━━━━\u001b[0m \u001b[32m780.6/780.6 kB\u001b[0m \u001b[31m8.2 MB/s\u001b[0m eta \u001b[36m0:00:00\u001b[0m\n","\u001b[?25hRequirement already satisfied: matplotlib>=3.3.0 in /usr/local/lib/python3.10/dist-packages (from ultralytics) (3.7.1)\n","Requirement already satisfied: opencv-python>=4.6.0 in /usr/local/lib/python3.10/dist-packages (from ultralytics) (4.8.0.76)\n","Requirement already satisfied: pillow>=7.1.2 in /usr/local/lib/python3.10/dist-packages (from ultralytics) (9.4.0)\n","Requirement already satisfied: pyyaml>=5.3.1 in /usr/local/lib/python3.10/dist-packages (from ultralytics) (6.0.1)\n","Requirement already satisfied: requests>=2.23.0 in /usr/local/lib/python3.10/dist-packages (from ultralytics) (2.31.0)\n","Requirement already satisfied: scipy>=1.4.1 in /usr/local/lib/python3.10/dist-packages (from ultralytics) (1.11.4)\n","Requirement already satisfied: torch>=1.8.0 in /usr/local/lib/python3.10/dist-packages (from ultralytics) (2.3.0+cu121)\n","Requirement already satisfied: torchvision>=0.9.0 in /usr/local/lib/python3.10/dist-packages (from ultralytics) (0.18.0+cu121)\n","Requirement already satisfied: tqdm>=4.64.0 in /usr/local/lib/python3.10/dist-packages (from ultralytics) (4.66.4)\n","Requirement already satisfied: psutil in /usr/local/lib/python3.10/dist-packages (from ultralytics) (5.9.5)\n","Requirement already satisfied: py-cpuinfo in /usr/local/lib/python3.10/dist-packages (from ultralytics) (9.0.0)\n","Requirement already satisfied: pandas>=1.1.4 in /usr/local/lib/python3.10/dist-packages (from ultralytics) (2.0.3)\n","Requirement already satisfied: seaborn>=0.11.0 in /usr/local/lib/python3.10/dist-packages (from ultralytics) (0.13.1)\n","Collecting ultralytics-thop>=0.2.5 (from ultralytics)\n","  Downloading ultralytics_thop-0.2.8-py3-none-any.whl (25 kB)\n","Requirement already satisfied: contourpy>=1.0.1 in /usr/local/lib/python3.10/dist-packages (from matplotlib>=3.3.0->ultralytics) (1.2.1)\n","Requirement already satisfied: cycler>=0.10 in /usr/local/lib/python3.10/dist-packages (from matplotlib>=3.3.0->ultralytics) (0.12.1)\n","Requirement already satisfied: fonttools>=4.22.0 in /usr/local/lib/python3.10/dist-packages (from matplotlib>=3.3.0->ultralytics) (4.53.0)\n","Requirement already satisfied: kiwisolver>=1.0.1 in /usr/local/lib/python3.10/dist-packages (from matplotlib>=3.3.0->ultralytics) (1.4.5)\n","Requirement already satisfied: numpy>=1.20 in /usr/local/lib/python3.10/dist-packages (from matplotlib>=3.3.0->ultralytics) (1.25.2)\n","Requirement already satisfied: packaging>=20.0 in /usr/local/lib/python3.10/dist-packages (from matplotlib>=3.3.0->ultralytics) (24.1)\n","Requirement already satisfied: pyparsing>=2.3.1 in /usr/local/lib/python3.10/dist-packages (from matplotlib>=3.3.0->ultralytics) (3.1.2)\n","Requirement already satisfied: python-dateutil>=2.7 in /usr/local/lib/python3.10/dist-packages (from matplotlib>=3.3.0->ultralytics) (2.8.2)\n","Requirement already satisfied: pytz>=2020.1 in /usr/local/lib/python3.10/dist-packages (from pandas>=1.1.4->ultralytics) (2023.4)\n","Requirement already satisfied: tzdata>=2022.1 in /usr/local/lib/python3.10/dist-packages (from pandas>=1.1.4->ultralytics) (2024.1)\n","Requirement already satisfied: charset-normalizer<4,>=2 in /usr/local/lib/python3.10/dist-packages (from requests>=2.23.0->ultralytics) (3.3.2)\n","Requirement already satisfied: idna<4,>=2.5 in /usr/local/lib/python3.10/dist-packages (from requests>=2.23.0->ultralytics) (3.7)\n","Requirement already satisfied: urllib3<3,>=1.21.1 in /usr/local/lib/python3.10/dist-packages (from requests>=2.23.0->ultralytics) (2.0.7)\n","Requirement already satisfied: certifi>=2017.4.17 in /usr/local/lib/python3.10/dist-packages (from requests>=2.23.0->ultralytics) (2024.6.2)\n","Requirement already satisfied: filelock in /usr/local/lib/python3.10/dist-packages (from torch>=1.8.0->ultralytics) (3.14.0)\n","Requirement already satisfied: typing-extensions>=4.8.0 in /usr/local/lib/python3.10/dist-packages (from torch>=1.8.0->ultralytics) (4.12.2)\n","Requirement already satisfied: sympy in /usr/local/lib/python3.10/dist-packages (from torch>=1.8.0->ultralytics) (1.12.1)\n","Requirement already satisfied: networkx in /usr/local/lib/python3.10/dist-packages (from torch>=1.8.0->ultralytics) (3.3)\n","Requirement already satisfied: jinja2 in /usr/local/lib/python3.10/dist-packages (from torch>=1.8.0->ultralytics) (3.1.4)\n","Requirement already satisfied: fsspec in /usr/local/lib/python3.10/dist-packages (from torch>=1.8.0->ultralytics) (2023.6.0)\n","Collecting nvidia-cuda-nvrtc-cu12==12.1.105 (from torch>=1.8.0->ultralytics)\n","  Using cached nvidia_cuda_nvrtc_cu12-12.1.105-py3-none-manylinux1_x86_64.whl (23.7 MB)\n","Collecting nvidia-cuda-runtime-cu12==12.1.105 (from torch>=1.8.0->ultralytics)\n","  Using cached nvidia_cuda_runtime_cu12-12.1.105-py3-none-manylinux1_x86_64.whl (823 kB)\n","Collecting nvidia-cuda-cupti-cu12==12.1.105 (from torch>=1.8.0->ultralytics)\n","  Using cached nvidia_cuda_cupti_cu12-12.1.105-py3-none-manylinux1_x86_64.whl (14.1 MB)\n","Collecting nvidia-cudnn-cu12==8.9.2.26 (from torch>=1.8.0->ultralytics)\n","  Using cached nvidia_cudnn_cu12-8.9.2.26-py3-none-manylinux1_x86_64.whl (731.7 MB)\n","Collecting nvidia-cublas-cu12==12.1.3.1 (from torch>=1.8.0->ultralytics)\n","  Using cached nvidia_cublas_cu12-12.1.3.1-py3-none-manylinux1_x86_64.whl (410.6 MB)\n","Collecting nvidia-cufft-cu12==11.0.2.54 (from torch>=1.8.0->ultralytics)\n","  Using cached nvidia_cufft_cu12-11.0.2.54-py3-none-manylinux1_x86_64.whl (121.6 MB)\n","Collecting nvidia-curand-cu12==10.3.2.106 (from torch>=1.8.0->ultralytics)\n","  Using cached nvidia_curand_cu12-10.3.2.106-py3-none-manylinux1_x86_64.whl (56.5 MB)\n","Collecting nvidia-cusolver-cu12==11.4.5.107 (from torch>=1.8.0->ultralytics)\n","  Using cached nvidia_cusolver_cu12-11.4.5.107-py3-none-manylinux1_x86_64.whl (124.2 MB)\n","Collecting nvidia-cusparse-cu12==12.1.0.106 (from torch>=1.8.0->ultralytics)\n","  Using cached nvidia_cusparse_cu12-12.1.0.106-py3-none-manylinux1_x86_64.whl (196.0 MB)\n","Collecting nvidia-nccl-cu12==2.20.5 (from torch>=1.8.0->ultralytics)\n","  Using cached nvidia_nccl_cu12-2.20.5-py3-none-manylinux2014_x86_64.whl (176.2 MB)\n","Collecting nvidia-nvtx-cu12==12.1.105 (from torch>=1.8.0->ultralytics)\n","  Using cached nvidia_nvtx_cu12-12.1.105-py3-none-manylinux1_x86_64.whl (99 kB)\n","Requirement already satisfied: triton==2.3.0 in /usr/local/lib/python3.10/dist-packages (from torch>=1.8.0->ultralytics) (2.3.0)\n","Collecting nvidia-nvjitlink-cu12 (from nvidia-cusolver-cu12==11.4.5.107->torch>=1.8.0->ultralytics)\n","  Downloading nvidia_nvjitlink_cu12-12.5.40-py3-none-manylinux2014_x86_64.whl (21.3 MB)\n","\u001b[2K     \u001b[90m━━━━━━━━━━━━━━━━━━━━━━━━━━━━━━━━━━━━━━━━\u001b[0m \u001b[32m21.3/21.3 MB\u001b[0m \u001b[31m57.2 MB/s\u001b[0m eta \u001b[36m0:00:00\u001b[0m\n","\u001b[?25hRequirement already satisfied: six>=1.5 in /usr/local/lib/python3.10/dist-packages (from python-dateutil>=2.7->matplotlib>=3.3.0->ultralytics) (1.16.0)\n","Requirement already satisfied: MarkupSafe>=2.0 in /usr/local/lib/python3.10/dist-packages (from jinja2->torch>=1.8.0->ultralytics) (2.1.5)\n","Requirement already satisfied: mpmath<1.4.0,>=1.1.0 in /usr/local/lib/python3.10/dist-packages (from sympy->torch>=1.8.0->ultralytics) (1.3.0)\n","Installing collected packages: nvidia-nvtx-cu12, nvidia-nvjitlink-cu12, nvidia-nccl-cu12, nvidia-curand-cu12, nvidia-cufft-cu12, nvidia-cuda-runtime-cu12, nvidia-cuda-nvrtc-cu12, nvidia-cuda-cupti-cu12, nvidia-cublas-cu12, nvidia-cusparse-cu12, nvidia-cudnn-cu12, nvidia-cusolver-cu12, ultralytics-thop, ultralytics\n","Successfully installed nvidia-cublas-cu12-12.1.3.1 nvidia-cuda-cupti-cu12-12.1.105 nvidia-cuda-nvrtc-cu12-12.1.105 nvidia-cuda-runtime-cu12-12.1.105 nvidia-cudnn-cu12-8.9.2.26 nvidia-cufft-cu12-11.0.2.54 nvidia-curand-cu12-10.3.2.106 nvidia-cusolver-cu12-11.4.5.107 nvidia-cusparse-cu12-12.1.0.106 nvidia-nccl-cu12-2.20.5 nvidia-nvjitlink-cu12-12.5.40 nvidia-nvtx-cu12-12.1.105 ultralytics-8.2.31 ultralytics-thop-0.2.8\n"]}]},{"cell_type":"code","source":["!pip install supervision"],"metadata":{"colab":{"base_uri":"https://localhost:8080/"},"id":"ys3Lf9uWS2hP","executionInfo":{"status":"ok","timestamp":1718318074517,"user_tz":300,"elapsed":5652,"user":{"displayName":"Sreesh Reddy","userId":"16534911298415659040"}},"outputId":"7c3c8de4-9c5d-41c8-c79e-ad3a58e9aaa9"},"execution_count":6,"outputs":[{"output_type":"stream","name":"stdout","text":["Collecting supervision\n","  Downloading supervision-0.21.0-py3-none-any.whl (123 kB)\n","\u001b[?25l     \u001b[90m━━━━━━━━━━━━━━━━━━━━━━━━━━━━━━━━━━━━━━━━\u001b[0m \u001b[32m0.0/124.0 kB\u001b[0m \u001b[31m?\u001b[0m eta \u001b[36m-:--:--\u001b[0m\r\u001b[2K     \u001b[90m━━━━━━━━━━━━━━━━━━━━━━━━━━━━━━━━━━━━━━━━\u001b[0m \u001b[32m124.0/124.0 kB\u001b[0m \u001b[31m3.8 MB/s\u001b[0m eta \u001b[36m0:00:00\u001b[0m\n","\u001b[?25hRequirement already satisfied: defusedxml<0.8.0,>=0.7.1 in /usr/local/lib/python3.10/dist-packages (from supervision) (0.7.1)\n","Requirement already satisfied: matplotlib>=3.6.0 in /usr/local/lib/python3.10/dist-packages (from supervision) (3.7.1)\n","Requirement already satisfied: numpy>=1.21.2 in /usr/local/lib/python3.10/dist-packages (from supervision) (1.25.2)\n","Requirement already satisfied: opencv-python-headless>=4.5.5.64 in /usr/local/lib/python3.10/dist-packages (from supervision) (4.10.0.82)\n","Requirement already satisfied: pillow>=9.4 in /usr/local/lib/python3.10/dist-packages (from supervision) (9.4.0)\n","Requirement already satisfied: pyyaml>=5.3 in /usr/local/lib/python3.10/dist-packages (from supervision) (6.0.1)\n","Requirement already satisfied: scipy<2.0.0,>=1.10.0 in /usr/local/lib/python3.10/dist-packages (from supervision) (1.11.4)\n","Requirement already satisfied: contourpy>=1.0.1 in /usr/local/lib/python3.10/dist-packages (from matplotlib>=3.6.0->supervision) (1.2.1)\n","Requirement already satisfied: cycler>=0.10 in /usr/local/lib/python3.10/dist-packages (from matplotlib>=3.6.0->supervision) (0.12.1)\n","Requirement already satisfied: fonttools>=4.22.0 in /usr/local/lib/python3.10/dist-packages (from matplotlib>=3.6.0->supervision) (4.53.0)\n","Requirement already satisfied: kiwisolver>=1.0.1 in /usr/local/lib/python3.10/dist-packages (from matplotlib>=3.6.0->supervision) (1.4.5)\n","Requirement already satisfied: packaging>=20.0 in /usr/local/lib/python3.10/dist-packages (from matplotlib>=3.6.0->supervision) (24.1)\n","Requirement already satisfied: pyparsing>=2.3.1 in /usr/local/lib/python3.10/dist-packages (from matplotlib>=3.6.0->supervision) (3.1.2)\n","Requirement already satisfied: python-dateutil>=2.7 in /usr/local/lib/python3.10/dist-packages (from matplotlib>=3.6.0->supervision) (2.8.2)\n","Requirement already satisfied: six>=1.5 in /usr/local/lib/python3.10/dist-packages (from python-dateutil>=2.7->matplotlib>=3.6.0->supervision) (1.16.0)\n","Installing collected packages: supervision\n","Successfully installed supervision-0.21.0\n"]}]},{"cell_type":"code","source":["!pip3 install streamlit"],"metadata":{"colab":{"base_uri":"https://localhost:8080/"},"id":"VbIY7IyFu3bJ","executionInfo":{"status":"ok","timestamp":1718318082641,"user_tz":300,"elapsed":8137,"user":{"displayName":"Sreesh Reddy","userId":"16534911298415659040"}},"outputId":"5774f17b-e4ed-4b5f-d82d-45cc56cad323"},"execution_count":7,"outputs":[{"output_type":"stream","name":"stdout","text":["Collecting streamlit\n","  Downloading streamlit-1.35.0-py2.py3-none-any.whl (8.6 MB)\n","\u001b[2K     \u001b[90m━━━━━━━━━━━━━━━━━━━━━━━━━━━━━━━━━━━━━━━━\u001b[0m \u001b[32m8.6/8.6 MB\u001b[0m \u001b[31m21.9 MB/s\u001b[0m eta \u001b[36m0:00:00\u001b[0m\n","\u001b[?25hRequirement already satisfied: altair<6,>=4.0 in /usr/local/lib/python3.10/dist-packages (from streamlit) (4.2.2)\n","Requirement already satisfied: blinker<2,>=1.0.0 in /usr/lib/python3/dist-packages (from streamlit) (1.4)\n","Requirement already satisfied: cachetools<6,>=4.0 in /usr/local/lib/python3.10/dist-packages (from streamlit) (5.3.3)\n","Requirement already satisfied: click<9,>=7.0 in /usr/local/lib/python3.10/dist-packages (from streamlit) (8.1.7)\n","Requirement already satisfied: numpy<2,>=1.19.3 in /usr/local/lib/python3.10/dist-packages (from streamlit) (1.25.2)\n","Requirement already satisfied: packaging<25,>=16.8 in /usr/local/lib/python3.10/dist-packages (from streamlit) (24.1)\n","Requirement already satisfied: pandas<3,>=1.3.0 in /usr/local/lib/python3.10/dist-packages (from streamlit) (2.0.3)\n","Requirement already satisfied: pillow<11,>=7.1.0 in /usr/local/lib/python3.10/dist-packages (from streamlit) (9.4.0)\n","Requirement already satisfied: protobuf<5,>=3.20 in /usr/local/lib/python3.10/dist-packages (from streamlit) (3.20.3)\n","Requirement already satisfied: pyarrow>=7.0 in /usr/local/lib/python3.10/dist-packages (from streamlit) (14.0.2)\n","Requirement already satisfied: requests<3,>=2.27 in /usr/local/lib/python3.10/dist-packages (from streamlit) (2.31.0)\n","Requirement already satisfied: rich<14,>=10.14.0 in /usr/local/lib/python3.10/dist-packages (from streamlit) (13.7.1)\n","Requirement already satisfied: tenacity<9,>=8.1.0 in /usr/local/lib/python3.10/dist-packages (from streamlit) (8.3.0)\n","Requirement already satisfied: toml<2,>=0.10.1 in /usr/local/lib/python3.10/dist-packages (from streamlit) (0.10.2)\n","Requirement already satisfied: typing-extensions<5,>=4.3.0 in /usr/local/lib/python3.10/dist-packages (from streamlit) (4.12.2)\n","Collecting gitpython!=3.1.19,<4,>=3.0.7 (from streamlit)\n","  Downloading GitPython-3.1.43-py3-none-any.whl (207 kB)\n","\u001b[2K     \u001b[90m━━━━━━━━━━━━━━━━━━━━━━━━━━━━━━━━━━━━━━━━\u001b[0m \u001b[32m207.3/207.3 kB\u001b[0m \u001b[31m30.6 MB/s\u001b[0m eta \u001b[36m0:00:00\u001b[0m\n","\u001b[?25hCollecting pydeck<1,>=0.8.0b4 (from streamlit)\n","  Downloading pydeck-0.9.1-py2.py3-none-any.whl (6.9 MB)\n","\u001b[2K     \u001b[90m━━━━━━━━━━━━━━━━━━━━━━━━━━━━━━━━━━━━━━━━\u001b[0m \u001b[32m6.9/6.9 MB\u001b[0m \u001b[31m60.1 MB/s\u001b[0m eta \u001b[36m0:00:00\u001b[0m\n","\u001b[?25hRequirement already satisfied: tornado<7,>=6.0.3 in /usr/local/lib/python3.10/dist-packages (from streamlit) (6.3.3)\n","Collecting watchdog>=2.1.5 (from streamlit)\n","  Downloading watchdog-4.0.1-py3-none-manylinux2014_x86_64.whl (83 kB)\n","\u001b[2K     \u001b[90m━━━━━━━━━━━━━━━━━━━━━━━━━━━━━━━━━━━━━━━━\u001b[0m \u001b[32m83.0/83.0 kB\u001b[0m \u001b[31m14.9 MB/s\u001b[0m eta \u001b[36m0:00:00\u001b[0m\n","\u001b[?25hRequirement already satisfied: entrypoints in /usr/local/lib/python3.10/dist-packages (from altair<6,>=4.0->streamlit) (0.4)\n","Requirement already satisfied: jinja2 in /usr/local/lib/python3.10/dist-packages (from altair<6,>=4.0->streamlit) (3.1.4)\n","Requirement already satisfied: jsonschema>=3.0 in /usr/local/lib/python3.10/dist-packages (from altair<6,>=4.0->streamlit) (4.19.2)\n","Requirement already satisfied: toolz in /usr/local/lib/python3.10/dist-packages (from altair<6,>=4.0->streamlit) (0.12.1)\n","Collecting gitdb<5,>=4.0.1 (from gitpython!=3.1.19,<4,>=3.0.7->streamlit)\n","  Downloading gitdb-4.0.11-py3-none-any.whl (62 kB)\n","\u001b[2K     \u001b[90m━━━━━━━━━━━━━━━━━━━━━━━━━━━━━━━━━━━━━━━━\u001b[0m \u001b[32m62.7/62.7 kB\u001b[0m \u001b[31m11.3 MB/s\u001b[0m eta \u001b[36m0:00:00\u001b[0m\n","\u001b[?25hRequirement already satisfied: python-dateutil>=2.8.2 in /usr/local/lib/python3.10/dist-packages (from pandas<3,>=1.3.0->streamlit) (2.8.2)\n","Requirement already satisfied: pytz>=2020.1 in /usr/local/lib/python3.10/dist-packages (from pandas<3,>=1.3.0->streamlit) (2023.4)\n","Requirement already satisfied: tzdata>=2022.1 in /usr/local/lib/python3.10/dist-packages (from pandas<3,>=1.3.0->streamlit) (2024.1)\n","Requirement already satisfied: charset-normalizer<4,>=2 in /usr/local/lib/python3.10/dist-packages (from requests<3,>=2.27->streamlit) (3.3.2)\n","Requirement already satisfied: idna<4,>=2.5 in /usr/local/lib/python3.10/dist-packages (from requests<3,>=2.27->streamlit) (3.7)\n","Requirement already satisfied: urllib3<3,>=1.21.1 in /usr/local/lib/python3.10/dist-packages (from requests<3,>=2.27->streamlit) (2.0.7)\n","Requirement already satisfied: certifi>=2017.4.17 in /usr/local/lib/python3.10/dist-packages (from requests<3,>=2.27->streamlit) (2024.6.2)\n","Requirement already satisfied: markdown-it-py>=2.2.0 in /usr/local/lib/python3.10/dist-packages (from rich<14,>=10.14.0->streamlit) (3.0.0)\n","Requirement already satisfied: pygments<3.0.0,>=2.13.0 in /usr/local/lib/python3.10/dist-packages (from rich<14,>=10.14.0->streamlit) (2.16.1)\n","Collecting smmap<6,>=3.0.1 (from gitdb<5,>=4.0.1->gitpython!=3.1.19,<4,>=3.0.7->streamlit)\n","  Downloading smmap-5.0.1-py3-none-any.whl (24 kB)\n","Requirement already satisfied: MarkupSafe>=2.0 in /usr/local/lib/python3.10/dist-packages (from jinja2->altair<6,>=4.0->streamlit) (2.1.5)\n","Requirement already satisfied: attrs>=22.2.0 in /usr/local/lib/python3.10/dist-packages (from jsonschema>=3.0->altair<6,>=4.0->streamlit) (23.2.0)\n","Requirement already satisfied: jsonschema-specifications>=2023.03.6 in /usr/local/lib/python3.10/dist-packages (from jsonschema>=3.0->altair<6,>=4.0->streamlit) (2023.12.1)\n","Requirement already satisfied: referencing>=0.28.4 in /usr/local/lib/python3.10/dist-packages (from jsonschema>=3.0->altair<6,>=4.0->streamlit) (0.35.1)\n","Requirement already satisfied: rpds-py>=0.7.1 in /usr/local/lib/python3.10/dist-packages (from jsonschema>=3.0->altair<6,>=4.0->streamlit) (0.18.1)\n","Requirement already satisfied: mdurl~=0.1 in /usr/local/lib/python3.10/dist-packages (from markdown-it-py>=2.2.0->rich<14,>=10.14.0->streamlit) (0.1.2)\n","Requirement already satisfied: six>=1.5 in /usr/local/lib/python3.10/dist-packages (from python-dateutil>=2.8.2->pandas<3,>=1.3.0->streamlit) (1.16.0)\n","Installing collected packages: watchdog, smmap, pydeck, gitdb, gitpython, streamlit\n","Successfully installed gitdb-4.0.11 gitpython-3.1.43 pydeck-0.9.1 smmap-5.0.1 streamlit-1.35.0 watchdog-4.0.1\n"]}]},{"cell_type":"code","source":["!python3 main.py"],"metadata":{"colab":{"base_uri":"https://localhost:8080/"},"id":"ZkQeRZ9ZTHPA","executionInfo":{"status":"ok","timestamp":1718318285487,"user_tz":300,"elapsed":54733,"user":{"displayName":"Sreesh Reddy","userId":"16534911298415659040"}},"outputId":"5207edfb-7296-4197-faeb-db56ec5a215c"},"execution_count":9,"outputs":[{"output_type":"stream","name":"stdout","text":["OpenCV: FFMPEG: tag 0x44495658/'XVID' is not supported with codec id 12 and format 'mp4 / MP4 (MPEG-4 Part 14)'\n","OpenCV: FFMPEG: fallback to use tag 0x7634706d/'mp4v'\n","ffmpeg version 4.4.2-0ubuntu0.22.04.1 Copyright (c) 2000-2021 the FFmpeg developers\n","  built with gcc 11 (Ubuntu 11.2.0-19ubuntu1)\n","  configuration: --prefix=/usr --extra-version=0ubuntu0.22.04.1 --toolchain=hardened --libdir=/usr/lib/x86_64-linux-gnu --incdir=/usr/include/x86_64-linux-gnu --arch=amd64 --enable-gpl --disable-stripping --enable-gnutls --enable-ladspa --enable-libaom --enable-libass --enable-libbluray --enable-libbs2b --enable-libcaca --enable-libcdio --enable-libcodec2 --enable-libdav1d --enable-libflite --enable-libfontconfig --enable-libfreetype --enable-libfribidi --enable-libgme --enable-libgsm --enable-libjack --enable-libmp3lame --enable-libmysofa --enable-libopenjpeg --enable-libopenmpt --enable-libopus --enable-libpulse --enable-librabbitmq --enable-librubberband --enable-libshine --enable-libsnappy --enable-libsoxr --enable-libspeex --enable-libsrt --enable-libssh --enable-libtheora --enable-libtwolame --enable-libvidstab --enable-libvorbis --enable-libvpx --enable-libwebp --enable-libx265 --enable-libxml2 --enable-libxvid --enable-libzimg --enable-libzmq --enable-libzvbi --enable-lv2 --enable-omx --enable-openal --enable-opencl --enable-opengl --enable-sdl2 --enable-pocketsphinx --enable-librsvg --enable-libmfx --enable-libdc1394 --enable-libdrm --enable-libiec61883 --enable-chromaprint --enable-frei0r --enable-libx264 --enable-shared\n","  libavutil      56. 70.100 / 56. 70.100\n","  libavcodec     58.134.100 / 58.134.100\n","  libavformat    58. 76.100 / 58. 76.100\n","  libavdevice    58. 13.100 / 58. 13.100\n","  libavfilter     7.110.100 /  7.110.100\n","  libswscale      5.  9.100 /  5.  9.100\n","  libswresample   3.  9.100 /  3.  9.100\n","  libpostproc    55.  9.100 / 55.  9.100\n","Input #0, mov,mp4,m4a,3gp,3g2,mj2, from 'output_videos/output_video_0bfacc_3.mp4':\n","  Metadata:\n","    major_brand     : isom\n","    minor_version   : 512\n","    compatible_brands: isomiso2mp41\n","    encoder         : Lavf59.27.100\n","  Duration: 00:00:31.25, start: 0.000000, bitrate: 20173 kb/s\n","  Stream #0:0(und): Video: mpeg4 (Simple Profile) (mp4v / 0x7634706D), yuv420p, 1920x1080 [SAR 1:1 DAR 16:9], 20172 kb/s, 24 fps, 24 tbr, 12288 tbn, 24 tbc (default)\n","    Metadata:\n","      handler_name    : VideoHandler\n","      vendor_id       : [0][0][0][0]\n","Stream mapping:\n","  Stream #0:0 -> #0:0 (mpeg4 (native) -> h264 (libx264))\n","Press [q] to stop, [?] for help\n","\u001b[1;36m[libx264 @ 0x5d2f5c17fdc0] \u001b[0musing SAR=1/1\n","\u001b[1;36m[libx264 @ 0x5d2f5c17fdc0] \u001b[0musing cpu capabilities: MMX2 SSE2Fast SSSE3 SSE4.2 AVX FMA3 BMI2 AVX2 AVX512\n","\u001b[1;36m[libx264 @ 0x5d2f5c17fdc0] \u001b[0mprofile High, level 4.0, 4:2:0, 8-bit\n","\u001b[1;36m[libx264 @ 0x5d2f5c17fdc0] \u001b[0m264 - core 163 r3060 5db6aa6 - H.264/MPEG-4 AVC codec - Copyleft 2003-2021 - http://www.videolan.org/x264.html - options: cabac=1 ref=3 deblock=1:0:0 analyse=0x3:0x113 me=hex subme=7 psy=1 psy_rd=1.00:0.00 mixed_ref=1 me_range=16 chroma_me=1 trellis=1 8x8dct=1 cqm=0 deadzone=21,11 fast_pskip=1 chroma_qp_offset=-2 threads=18 lookahead_threads=3 sliced_threads=0 nr=0 decimate=1 interlaced=0 bluray_compat=0 constrained_intra=0 bframes=3 b_pyramid=2 b_adapt=1 b_bias=0 direct=1 weightb=1 open_gop=0 weightp=2 keyint=250 keyint_min=24 scenecut=40 intra_refresh=0 rc_lookahead=40 rc=crf mbtree=1 crf=20.0 qcomp=0.60 qpmin=0 qpmax=69 qpstep=4 ip_ratio=1.40 aq=1:1.00\n","Output #0, mp4, to 'output_videos/output_video_0bfacc_3_com.mp4':\n","  Metadata:\n","    major_brand     : isom\n","    minor_version   : 512\n","    compatible_brands: isomiso2mp41\n","    encoder         : Lavf58.76.100\n","  Stream #0:0(und): Video: h264 (avc1 / 0x31637661), yuv420p(progressive), 1920x1080 [SAR 1:1 DAR 16:9], q=2-31, 24 fps, 12288 tbn (default)\n","    Metadata:\n","      handler_name    : VideoHandler\n","      vendor_id       : [0][0][0][0]\n","      encoder         : Lavc58.134.100 libx264\n","    Side data:\n","      cpb: bitrate max/min/avg: 0/0/0 buffer size: 0 vbv_delay: N/A\n","frame=  750 fps= 34 q=-1.0 Lsize=   37585kB time=00:00:31.12 bitrate=9892.2kbits/s speed=1.42x    \n","video:37577kB audio:0kB subtitle:0kB other streams:0kB global headers:0kB muxing overhead: 0.021846%\n","\u001b[1;36m[libx264 @ 0x5d2f5c17fdc0] \u001b[0mframe I:3     Avg QP:18.13  size:232973\n","\u001b[1;36m[libx264 @ 0x5d2f5c17fdc0] \u001b[0mframe P:433   Avg QP:19.91  size: 71643\n","\u001b[1;36m[libx264 @ 0x5d2f5c17fdc0] \u001b[0mframe B:314   Avg QP:23.74  size: 21521\n","\u001b[1;36m[libx264 @ 0x5d2f5c17fdc0] \u001b[0mconsecutive B-frames: 40.7%  7.7%  8.4% 43.2%\n","\u001b[1;36m[libx264 @ 0x5d2f5c17fdc0] \u001b[0mmb I  I16..4: 15.2% 68.6% 16.2%\n","\u001b[1;36m[libx264 @ 0x5d2f5c17fdc0] \u001b[0mmb P  I16..4:  2.0%  6.9%  0.8%  P16..4: 45.2% 18.9% 12.9%  0.0%  0.0%    skip:13.2%\n","\u001b[1;36m[libx264 @ 0x5d2f5c17fdc0] \u001b[0mmb B  I16..4:  0.7%  3.3%  0.1%  B16..8: 48.6%  8.4%  2.1%  direct: 2.4%  skip:34.3%  L0:50.2% L1:31.3% BI:18.6%\n","\u001b[1;36m[libx264 @ 0x5d2f5c17fdc0] \u001b[0m8x8 transform intra:73.1% inter:72.6%\n","\u001b[1;36m[libx264 @ 0x5d2f5c17fdc0] \u001b[0mcoded y,uvDC,uvAC intra: 52.5% 50.6% 15.9% inter: 29.1% 21.6% 2.4%\n","\u001b[1;36m[libx264 @ 0x5d2f5c17fdc0] \u001b[0mi16 v,h,dc,p: 17% 43% 34%  6%\n","\u001b[1;36m[libx264 @ 0x5d2f5c17fdc0] \u001b[0mi8 v,h,dc,ddl,ddr,vr,hd,vl,hu: 16% 35% 41%  2%  1%  1%  2%  1%  2%\n","\u001b[1;36m[libx264 @ 0x5d2f5c17fdc0] \u001b[0mi4 v,h,dc,ddl,ddr,vr,hd,vl,hu: 23% 35% 16%  4%  4%  4%  5%  4%  5%\n","\u001b[1;36m[libx264 @ 0x5d2f5c17fdc0] \u001b[0mi8c dc,h,v,p: 46% 36% 15%  3%\n","\u001b[1;36m[libx264 @ 0x5d2f5c17fdc0] \u001b[0mWeighted P-Frames: Y:0.5% UV:0.0%\n","\u001b[1;36m[libx264 @ 0x5d2f5c17fdc0] \u001b[0mref P L0: 71.0% 12.0% 13.0%  4.0%  0.0%\n","\u001b[1;36m[libx264 @ 0x5d2f5c17fdc0] \u001b[0mref B L0: 89.4%  8.8%  1.8%\n","\u001b[1;36m[libx264 @ 0x5d2f5c17fdc0] \u001b[0mref B L1: 97.5%  2.5%\n","\u001b[1;36m[libx264 @ 0x5d2f5c17fdc0] \u001b[0mkb/s:9850.32\n","Execution time: 49.99 seconds\n"]}]},{"cell_type":"code","source":["!wget -q -O - ipv4.icanhazip.com"],"metadata":{"colab":{"base_uri":"https://localhost:8080/"},"id":"XchoGspl4gJe","executionInfo":{"status":"ok","timestamp":1718319195282,"user_tz":300,"elapsed":197,"user":{"displayName":"Sreesh Reddy","userId":"16534911298415659040"}},"outputId":"ec88495d-1c77-4564-f076-eafb026f7954"},"execution_count":17,"outputs":[{"output_type":"stream","name":"stdout","text":["34.125.172.239\n"]}]},{"cell_type":"code","source":["!streamlit run app.py & npx localtunnel --port 8501"],"metadata":{"colab":{"base_uri":"https://localhost:8080/"},"id":"AU5UvCcG44oj","executionInfo":{"status":"ok","timestamp":1718319536760,"user_tz":300,"elapsed":340392,"user":{"displayName":"Sreesh Reddy","userId":"16534911298415659040"}},"outputId":"e61f66f8-2e6e-4298-e34e-bc09fab36942"},"execution_count":18,"outputs":[{"output_type":"stream","name":"stdout","text":["\n","Collecting usage statistics. To deactivate, set browser.gatherUsageStats to false.\n","\u001b[0m\n","\u001b[0m\n","\u001b[34m\u001b[1m  You can now view your Streamlit app in your browser.\u001b[0m\n","\u001b[0m\n","\u001b[34m  Local URL: \u001b[0m\u001b[1mhttp://localhost:8501\u001b[0m\n","\u001b[34m  Network URL: \u001b[0m\u001b[1mhttp://172.28.0.12:8501\u001b[0m\n","\u001b[34m  External URL: \u001b[0m\u001b[1mhttp://34.125.172.239:8501\u001b[0m\n","\u001b[0m\n","\u001b[K\u001b[?25hnpx: installed 22 in 1.788s\n","your url is: https://stale-cloths-judge.loca.lt\n","OpenCV: FFMPEG: tag 0x44495658/'XVID' is not supported with codec id 12 and format 'mp4 / MP4 (MPEG-4 Part 14)'\n","OpenCV: FFMPEG: fallback to use tag 0x7634706d/'mp4v'\n","ffmpeg version 4.4.2-0ubuntu0.22.04.1 Copyright (c) 2000-2021 the FFmpeg developers\n","  built with gcc 11 (Ubuntu 11.2.0-19ubuntu1)\n","  configuration: --prefix=/usr --extra-version=0ubuntu0.22.04.1 --toolchain=hardened --libdir=/usr/lib/x86_64-linux-gnu --incdir=/usr/include/x86_64-linux-gnu --arch=amd64 --enable-gpl --disable-stripping --enable-gnutls --enable-ladspa --enable-libaom --enable-libass --enable-libbluray --enable-libbs2b --enable-libcaca --enable-libcdio --enable-libcodec2 --enable-libdav1d --enable-libflite --enable-libfontconfig --enable-libfreetype --enable-libfribidi --enable-libgme --enable-libgsm --enable-libjack --enable-libmp3lame --enable-libmysofa --enable-libopenjpeg --enable-libopenmpt --enable-libopus --enable-libpulse --enable-librabbitmq --enable-librubberband --enable-libshine --enable-libsnappy --enable-libsoxr --enable-libspeex --enable-libsrt --enable-libssh --enable-libtheora --enable-libtwolame --enable-libvidstab --enable-libvorbis --enable-libvpx --enable-libwebp --enable-libx265 --enable-libxml2 --enable-libxvid --enable-libzimg --enable-libzmq --enable-libzvbi --enable-lv2 --enable-omx --enable-openal --enable-opencl --enable-opengl --enable-sdl2 --enable-pocketsphinx --enable-librsvg --enable-libmfx --enable-libdc1394 --enable-libdrm --enable-libiec61883 --enable-chromaprint --enable-frei0r --enable-libx264 --enable-shared\n","  libavutil      56. 70.100 / 56. 70.100\n","  libavcodec     58.134.100 / 58.134.100\n","  libavformat    58. 76.100 / 58. 76.100\n","  libavdevice    58. 13.100 / 58. 13.100\n","  libavfilter     7.110.100 /  7.110.100\n","  libswscale      5.  9.100 /  5.  9.100\n","  libswresample   3.  9.100 /  3.  9.100\n","  libpostproc    55.  9.100 / 55.  9.100\n","Input #0, mov,mp4,m4a,3gp,3g2,mj2, from 'output_videos/output_video_08fd33_1.mp4':\n","  Metadata:\n","    major_brand     : isom\n","    minor_version   : 512\n","    compatible_brands: isomiso2mp41\n","    encoder         : Lavf59.27.100\n","  Duration: 00:00:31.25, start: 0.000000, bitrate: 19413 kb/s\n","  Stream #0:0(und): Video: mpeg4 (Simple Profile) (mp4v / 0x7634706D), yuv420p, 1920x1080 [SAR 1:1 DAR 16:9], 19412 kb/s, 24 fps, 24 tbr, 12288 tbn, 24 tbc (default)\n","    Metadata:\n","      handler_name    : VideoHandler\n","      vendor_id       : [0][0][0][0]\n","File 'output_videos/output_video_08fd33_1_com.mp4' already exists. Overwrite? [y/N] \u001b[4;31mNot overwriting - exiting\n","\u001b[0m2024-06-13 22:54:08.162 Uncaught app exception\n","Traceback (most recent call last):\n","  File \"/usr/local/lib/python3.10/dist-packages/streamlit/runtime/scriptrunner/script_runner.py\", line 600, in _run_script\n","    exec(code, module.__dict__)\n","  File \"/content/drive/MyDrive/CV-Project/app.py\", line 168, in <module>\n","    main()\n","  File \"/content/drive/MyDrive/CV-Project/app.py\", line 163, in main\n","    os.remove(\"output_videos/output_video.mp4\")\n","FileNotFoundError: [Errno 2] No such file or directory: 'output_videos/output_video.mp4'\n","\n","UserWarning: Plan failed with a cudnnException: CUDNN_BACKEND_EXECUTION_PLAN_DESCRIPTOR: cudnnFinalize Descriptor Failed cudnn_status: CUDNN_STATUS_NOT_SUPPORTED (Triggered internally at ../aten/src/ATen/native/cudnn/Conv_v8.cpp:919.)\n","0: 384x640 1 goalkeeper, 19 players, 2 referees, 13.0ms\n","1: 384x640 2 goalkeepers, 21 players, 2 referees, 13.0ms\n","2: 384x640 1 goalkeeper, 21 players, 2 referees, 13.0ms\n","3: 384x640 1 goalkeeper, 18 players, 2 referees, 13.0ms\n","4: 384x640 2 goalkeepers, 17 players, 2 referees, 13.0ms\n","5: 384x640 2 goalkeepers, 20 players, 2 referees, 13.0ms\n","6: 384x640 20 players, 2 referees, 13.0ms\n","7: 384x640 19 players, 2 referees, 13.0ms\n","8: 384x640 18 players, 2 referees, 13.0ms\n","9: 384x640 19 players, 2 referees, 13.0ms\n","10: 384x640 1 ball, 1 goalkeeper, 20 players, 1 referee, 13.0ms\n","11: 384x640 1 ball, 1 goalkeeper, 20 players, 1 referee, 13.0ms\n","12: 384x640 2 goalkeepers, 21 players, 2 referees, 13.0ms\n","13: 384x640 1 goalkeeper, 21 players, 2 referees, 13.0ms\n","14: 384x640 1 goalkeeper, 19 players, 2 referees, 13.0ms\n","15: 384x640 1 ball, 1 goalkeeper, 19 players, 2 referees, 13.0ms\n","16: 384x640 1 goalkeeper, 21 players, 2 referees, 13.0ms\n","17: 384x640 2 goalkeepers, 21 players, 2 referees, 13.0ms\n","18: 384x640 1 goalkeeper, 20 players, 2 referees, 13.0ms\n","19: 384x640 1 goalkeeper, 20 players, 1 referee, 13.0ms\n","Speed: 2.4ms preprocess, 13.0ms inference, 34.1ms postprocess per image at shape (1, 3, 384, 640)\n","\n","0: 384x640 1 goalkeeper, 20 players, 2 referees, 11.7ms\n","1: 384x640 1 goalkeeper, 18 players, 2 referees, 11.7ms\n","2: 384x640 1 goalkeeper, 18 players, 2 referees, 11.7ms\n","3: 384x640 1 goalkeeper, 18 players, 2 referees, 11.7ms\n","4: 384x640 1 ball, 1 goalkeeper, 16 players, 2 referees, 11.7ms\n","5: 384x640 1 ball, 1 goalkeeper, 17 players, 2 referees, 11.7ms\n","6: 384x640 1 goalkeeper, 19 players, 2 referees, 11.7ms\n","7: 384x640 2 goalkeepers, 19 players, 2 referees, 11.7ms\n","8: 384x640 1 goalkeeper, 20 players, 2 referees, 11.7ms\n","9: 384x640 1 goalkeeper, 18 players, 2 referees, 11.7ms\n","10: 384x640 1 goalkeeper, 18 players, 2 referees, 11.7ms\n","11: 384x640 1 goalkeeper, 17 players, 2 referees, 11.7ms\n","12: 384x640 1 goalkeeper, 17 players, 1 referee, 11.7ms\n","13: 384x640 1 goalkeeper, 19 players, 3 referees, 11.7ms\n","14: 384x640 1 goalkeeper, 18 players, 1 referee, 11.7ms\n","15: 384x640 1 goalkeeper, 19 players, 1 referee, 11.7ms\n","16: 384x640 1 goalkeeper, 17 players, 1 referee, 11.7ms\n","17: 384x640 1 goalkeeper, 17 players, 1 referee, 11.7ms\n","18: 384x640 1 goalkeeper, 17 players, 1 referee, 11.7ms\n","19: 384x640 1 goalkeeper, 17 players, 1 referee, 11.7ms\n","Speed: 1.9ms preprocess, 11.7ms inference, 0.8ms postprocess per image at shape (1, 3, 384, 640)\n","\n","0: 384x640 1 goalkeeper, 17 players, 1 referee, 11.7ms\n","1: 384x640 1 goalkeeper, 18 players, 1 referee, 11.7ms\n","2: 384x640 1 goalkeeper, 19 players, 1 referee, 11.7ms\n","3: 384x640 1 goalkeeper, 19 players, 3 referees, 11.7ms\n","4: 384x640 1 goalkeeper, 18 players, 2 referees, 11.7ms\n","5: 384x640 1 goalkeeper, 20 players, 2 referees, 11.7ms\n","6: 384x640 1 ball, 1 goalkeeper, 19 players, 2 referees, 11.7ms\n","7: 384x640 1 goalkeeper, 18 players, 2 referees, 11.7ms\n","8: 384x640 18 players, 2 referees, 11.7ms\n","9: 384x640 19 players, 2 referees, 11.7ms\n","10: 384x640 1 goalkeeper, 19 players, 2 referees, 11.7ms\n","11: 384x640 19 players, 2 referees, 11.7ms\n","12: 384x640 19 players, 2 referees, 11.7ms\n","13: 384x640 20 players, 1 referee, 11.7ms\n","14: 384x640 1 goalkeeper, 20 players, 1 referee, 11.7ms\n","15: 384x640 1 goalkeeper, 20 players, 1 referee, 11.7ms\n","16: 384x640 1 goalkeeper, 20 players, 1 referee, 11.7ms\n","17: 384x640 1 goalkeeper, 19 players, 1 referee, 11.7ms\n","18: 384x640 1 goalkeeper, 19 players, 1 referee, 11.7ms\n","19: 384x640 1 goalkeeper, 20 players, 1 referee, 11.7ms\n","Speed: 1.9ms preprocess, 11.7ms inference, 0.8ms postprocess per image at shape (1, 3, 384, 640)\n","\n","0: 384x640 1 goalkeeper, 20 players, 1 referee, 11.7ms\n","1: 384x640 1 goalkeeper, 18 players, 1 referee, 11.7ms\n","2: 384x640 1 goalkeeper, 17 players, 11.7ms\n","3: 384x640 17 players, 1 referee, 11.7ms\n","4: 384x640 18 players, 1 referee, 11.7ms\n","5: 384x640 18 players, 1 referee, 11.7ms\n","6: 384x640 18 players, 1 referee, 11.7ms\n","7: 384x640 19 players, 2 referees, 11.7ms\n","8: 384x640 19 players, 2 referees, 11.7ms\n","9: 384x640 19 players, 1 referee, 11.7ms\n","10: 384x640 1 goalkeeper, 19 players, 2 referees, 11.7ms\n","11: 384x640 1 goalkeeper, 17 players, 2 referees, 11.7ms\n","12: 384x640 2 goalkeepers, 18 players, 2 referees, 11.7ms\n","13: 384x640 1 goalkeeper, 19 players, 2 referees, 11.7ms\n","14: 384x640 19 players, 2 referees, 11.7ms\n","15: 384x640 18 players, 2 referees, 11.7ms\n","16: 384x640 17 players, 1 referee, 11.7ms\n","17: 384x640 18 players, 1 referee, 11.7ms\n","18: 384x640 19 players, 1 referee, 11.7ms\n","19: 384x640 18 players, 1 referee, 11.7ms\n","Speed: 1.9ms preprocess, 11.7ms inference, 0.8ms postprocess per image at shape (1, 3, 384, 640)\n","\n","0: 384x640 18 players, 1 referee, 11.7ms\n","1: 384x640 19 players, 1 referee, 11.7ms\n","2: 384x640 20 players, 3 referees, 11.7ms\n","3: 384x640 20 players, 3 referees, 11.7ms\n","4: 384x640 19 players, 2 referees, 11.7ms\n","5: 384x640 20 players, 2 referees, 11.7ms\n","6: 384x640 20 players, 2 referees, 11.7ms\n","7: 384x640 20 players, 3 referees, 11.7ms\n","8: 384x640 19 players, 2 referees, 11.7ms\n","9: 384x640 19 players, 2 referees, 11.7ms\n","10: 384x640 19 players, 2 referees, 11.7ms\n","11: 384x640 20 players, 2 referees, 11.7ms\n","12: 384x640 20 players, 2 referees, 11.7ms\n","13: 384x640 20 players, 2 referees, 11.7ms\n","14: 384x640 20 players, 2 referees, 11.7ms\n","15: 384x640 19 players, 2 referees, 11.7ms\n","16: 384x640 20 players, 2 referees, 11.7ms\n","17: 384x640 20 players, 2 referees, 11.7ms\n","18: 384x640 19 players, 2 referees, 11.7ms\n","19: 384x640 1 goalkeeper, 20 players, 2 referees, 11.7ms\n","Speed: 1.9ms preprocess, 11.7ms inference, 0.8ms postprocess per image at shape (1, 3, 384, 640)\n","\n","0: 384x640 1 goalkeeper, 18 players, 2 referees, 11.7ms\n","1: 384x640 1 goalkeeper, 18 players, 2 referees, 11.7ms\n","2: 384x640 1 goalkeeper, 19 players, 2 referees, 11.7ms\n","3: 384x640 1 goalkeeper, 20 players, 2 referees, 11.7ms\n","4: 384x640 1 goalkeeper, 20 players, 3 referees, 11.7ms\n","5: 384x640 1 goalkeeper, 20 players, 2 referees, 11.7ms\n","6: 384x640 1 goalkeeper, 22 players, 2 referees, 11.7ms\n","7: 384x640 1 goalkeeper, 21 players, 3 referees, 11.7ms\n","8: 384x640 1 goalkeeper, 21 players, 2 referees, 11.7ms\n","9: 384x640 1 goalkeeper, 21 players, 3 referees, 11.7ms\n","10: 384x640 1 goalkeeper, 20 players, 4 referees, 11.7ms\n","11: 384x640 1 goalkeeper, 19 players, 4 referees, 11.7ms\n","12: 384x640 1 goalkeeper, 16 players, 4 referees, 11.7ms\n","13: 384x640 1 goalkeeper, 16 players, 2 referees, 11.7ms\n","14: 384x640 1 goalkeeper, 18 players, 1 referee, 11.7ms\n","15: 384x640 1 goalkeeper, 17 players, 1 referee, 11.7ms\n","16: 384x640 1 ball, 1 goalkeeper, 16 players, 2 referees, 11.7ms\n","17: 384x640 1 ball, 1 goalkeeper, 16 players, 2 referees, 11.7ms\n","18: 384x640 1 ball, 1 goalkeeper, 18 players, 1 referee, 11.7ms\n","19: 384x640 1 goalkeeper, 17 players, 1 referee, 11.7ms\n","Speed: 1.9ms preprocess, 11.7ms inference, 0.8ms postprocess per image at shape (1, 3, 384, 640)\n","\n","0: 384x640 1 goalkeeper, 17 players, 1 referee, 11.8ms\n","1: 384x640 1 goalkeeper, 18 players, 1 referee, 11.8ms\n","2: 384x640 1 goalkeeper, 17 players, 2 referees, 11.8ms\n","3: 384x640 1 goalkeeper, 17 players, 2 referees, 11.8ms\n","4: 384x640 1 goalkeeper, 17 players, 2 referees, 11.8ms\n","5: 384x640 1 goalkeeper, 20 players, 1 referee, 11.8ms\n","6: 384x640 1 goalkeeper, 19 players, 1 referee, 11.8ms\n","7: 384x640 1 goalkeeper, 18 players, 1 referee, 11.8ms\n","8: 384x640 1 goalkeeper, 19 players, 2 referees, 11.8ms\n","9: 384x640 1 goalkeeper, 20 players, 2 referees, 11.8ms\n","10: 384x640 1 goalkeeper, 19 players, 2 referees, 11.8ms\n","11: 384x640 1 goalkeeper, 19 players, 2 referees, 11.8ms\n","12: 384x640 1 goalkeeper, 20 players, 1 referee, 11.8ms\n","13: 384x640 1 goalkeeper, 20 players, 1 referee, 11.8ms\n","14: 384x640 1 goalkeeper, 20 players, 1 referee, 11.8ms\n","15: 384x640 1 goalkeeper, 20 players, 2 referees, 11.8ms\n","16: 384x640 21 players, 1 referee, 11.8ms\n","17: 384x640 1 goalkeeper, 21 players, 2 referees, 11.8ms\n","18: 384x640 1 goalkeeper, 20 players, 3 referees, 11.8ms\n","19: 384x640 1 goalkeeper, 20 players, 3 referees, 11.8ms\n","Speed: 1.9ms preprocess, 11.8ms inference, 0.8ms postprocess per image at shape (1, 3, 384, 640)\n","\n","0: 384x640 1 goalkeeper, 19 players, 2 referees, 11.7ms\n","1: 384x640 1 goalkeeper, 21 players, 3 referees, 11.7ms\n","2: 384x640 1 goalkeeper, 20 players, 2 referees, 11.7ms\n","3: 384x640 1 goalkeeper, 18 players, 3 referees, 11.7ms\n","4: 384x640 1 ball, 1 goalkeeper, 18 players, 3 referees, 11.7ms\n","5: 384x640 1 ball, 1 goalkeeper, 19 players, 3 referees, 11.7ms\n","6: 384x640 1 ball, 1 goalkeeper, 19 players, 3 referees, 11.7ms\n","7: 384x640 1 ball, 1 goalkeeper, 19 players, 3 referees, 11.7ms\n","8: 384x640 1 ball, 1 goalkeeper, 20 players, 2 referees, 11.7ms\n","9: 384x640 1 ball, 1 goalkeeper, 20 players, 3 referees, 11.7ms\n","10: 384x640 1 ball, 1 goalkeeper, 21 players, 2 referees, 11.7ms\n","11: 384x640 1 ball, 1 goalkeeper, 19 players, 3 referees, 11.7ms\n","12: 384x640 1 goalkeeper, 20 players, 2 referees, 11.7ms\n","13: 384x640 1 goalkeeper, 20 players, 2 referees, 11.7ms\n","14: 384x640 1 goalkeeper, 20 players, 2 referees, 11.7ms\n","15: 384x640 1 goalkeeper, 20 players, 2 referees, 11.7ms\n","16: 384x640 1 goalkeeper, 19 players, 2 referees, 11.7ms\n","17: 384x640 1 goalkeeper, 19 players, 2 referees, 11.7ms\n","18: 384x640 1 goalkeeper, 19 players, 2 referees, 11.7ms\n","19: 384x640 1 goalkeeper, 19 players, 2 referees, 11.7ms\n","Speed: 1.9ms preprocess, 11.7ms inference, 0.8ms postprocess per image at shape (1, 3, 384, 640)\n","\n","0: 384x640 1 goalkeeper, 19 players, 2 referees, 11.7ms\n","1: 384x640 1 goalkeeper, 18 players, 2 referees, 11.7ms\n","2: 384x640 1 goalkeeper, 18 players, 2 referees, 11.7ms\n","3: 384x640 1 goalkeeper, 18 players, 2 referees, 11.7ms\n","4: 384x640 1 goalkeeper, 18 players, 2 referees, 11.7ms\n","5: 384x640 1 goalkeeper, 17 players, 2 referees, 11.7ms\n","6: 384x640 1 goalkeeper, 18 players, 2 referees, 11.7ms\n","7: 384x640 1 goalkeeper, 16 players, 2 referees, 11.7ms\n","8: 384x640 1 goalkeeper, 18 players, 2 referees, 11.7ms\n","9: 384x640 1 goalkeeper, 18 players, 2 referees, 11.7ms\n","10: 384x640 1 goalkeeper, 18 players, 2 referees, 11.7ms\n","11: 384x640 1 goalkeeper, 17 players, 2 referees, 11.7ms\n","12: 384x640 1 goalkeeper, 17 players, 2 referees, 11.7ms\n","13: 384x640 1 goalkeeper, 17 players, 1 referee, 11.7ms\n","14: 384x640 1 goalkeeper, 16 players, 1 referee, 11.7ms\n","15: 384x640 1 goalkeeper, 17 players, 11.7ms\n","16: 384x640 1 goalkeeper, 18 players, 11.7ms\n","17: 384x640 1 goalkeeper, 18 players, 1 referee, 11.7ms\n","18: 384x640 1 goalkeeper, 19 players, 11.7ms\n","19: 384x640 1 goalkeeper, 18 players, 1 referee, 11.7ms\n","Speed: 2.0ms preprocess, 11.7ms inference, 0.8ms postprocess per image at shape (1, 3, 384, 640)\n","\n","0: 384x640 2 goalkeepers, 20 players, 1 referee, 11.7ms\n","1: 384x640 1 goalkeeper, 20 players, 1 referee, 11.7ms\n","2: 384x640 1 goalkeeper, 19 players, 1 referee, 11.7ms\n","3: 384x640 1 goalkeeper, 19 players, 1 referee, 11.7ms\n","4: 384x640 1 goalkeeper, 20 players, 1 referee, 11.7ms\n","5: 384x640 1 ball, 1 goalkeeper, 20 players, 1 referee, 11.7ms\n","6: 384x640 1 ball, 1 goalkeeper, 20 players, 1 referee, 11.7ms\n","7: 384x640 1 ball, 1 goalkeeper, 20 players, 2 referees, 11.7ms\n","8: 384x640 1 ball, 1 goalkeeper, 20 players, 2 referees, 11.7ms\n","9: 384x640 1 ball, 1 goalkeeper, 21 players, 2 referees, 11.7ms\n","10: 384x640 1 ball, 1 goalkeeper, 19 players, 2 referees, 11.7ms\n","11: 384x640 1 goalkeeper, 19 players, 2 referees, 11.7ms\n","12: 384x640 1 goalkeeper, 19 players, 2 referees, 11.7ms\n","13: 384x640 1 goalkeeper, 19 players, 2 referees, 11.7ms\n","14: 384x640 1 goalkeeper, 18 players, 2 referees, 11.7ms\n","15: 384x640 19 players, 1 referee, 11.7ms\n","16: 384x640 18 players, 1 referee, 11.7ms\n","17: 384x640 1 goalkeeper, 18 players, 1 referee, 11.7ms\n","18: 384x640 1 goalkeeper, 19 players, 1 referee, 11.7ms\n","19: 384x640 1 goalkeeper, 20 players, 11.7ms\n","Speed: 1.9ms preprocess, 11.7ms inference, 1.0ms postprocess per image at shape (1, 3, 384, 640)\n","\n","0: 384x640 1 goalkeeper, 20 players, 11.7ms\n","1: 384x640 1 goalkeeper, 20 players, 11.7ms\n","2: 384x640 1 goalkeeper, 20 players, 11.7ms\n","3: 384x640 1 goalkeeper, 19 players, 11.7ms\n","4: 384x640 1 goalkeeper, 20 players, 11.7ms\n","5: 384x640 1 goalkeeper, 20 players, 11.7ms\n","6: 384x640 1 goalkeeper, 19 players, 11.7ms\n","7: 384x640 1 goalkeeper, 19 players, 1 referee, 11.7ms\n","8: 384x640 1 goalkeeper, 17 players, 1 referee, 11.7ms\n","9: 384x640 1 goalkeeper, 19 players, 11.7ms\n","10: 384x640 1 goalkeeper, 18 players, 11.7ms\n","11: 384x640 1 goalkeeper, 19 players, 11.7ms\n","12: 384x640 1 goalkeeper, 19 players, 11.7ms\n","13: 384x640 1 goalkeeper, 19 players, 1 referee, 11.7ms\n","14: 384x640 1 goalkeeper, 18 players, 1 referee, 11.7ms\n","15: 384x640 1 goalkeeper, 20 players, 1 referee, 11.7ms\n","16: 384x640 1 goalkeeper, 20 players, 2 referees, 11.7ms\n","17: 384x640 1 goalkeeper, 21 players, 2 referees, 11.7ms\n","18: 384x640 1 goalkeeper, 21 players, 2 referees, 11.7ms\n","19: 384x640 1 goalkeeper, 21 players, 2 referees, 11.7ms\n","Speed: 2.0ms preprocess, 11.7ms inference, 0.8ms postprocess per image at shape (1, 3, 384, 640)\n","\n","0: 384x640 1 goalkeeper, 19 players, 2 referees, 11.7ms\n","1: 384x640 1 goalkeeper, 18 players, 2 referees, 11.7ms\n","2: 384x640 1 goalkeeper, 18 players, 2 referees, 11.7ms\n","3: 384x640 1 goalkeeper, 18 players, 2 referees, 11.7ms\n","4: 384x640 1 goalkeeper, 17 players, 2 referees, 11.7ms\n","5: 384x640 1 ball, 1 goalkeeper, 18 players, 2 referees, 11.7ms\n","6: 384x640 1 goalkeeper, 17 players, 2 referees, 11.7ms\n","7: 384x640 1 goalkeeper, 17 players, 2 referees, 11.7ms\n","8: 384x640 1 goalkeeper, 15 players, 2 referees, 11.7ms\n","9: 384x640 1 ball, 1 goalkeeper, 15 players, 2 referees, 11.7ms\n","10: 384x640 1 goalkeeper, 17 players, 2 referees, 11.7ms\n","11: 384x640 1 goalkeeper, 17 players, 2 referees, 11.7ms\n","12: 384x640 1 goalkeeper, 19 players, 1 referee, 11.7ms\n","13: 384x640 1 ball, 1 goalkeeper, 20 players, 1 referee, 11.7ms\n","14: 384x640 1 ball, 1 goalkeeper, 20 players, 1 referee, 11.7ms\n","15: 384x640 1 goalkeeper, 20 players, 1 referee, 11.7ms\n","16: 384x640 1 goalkeeper, 20 players, 11.7ms\n","17: 384x640 1 goalkeeper, 19 players, 11.7ms\n","18: 384x640 1 goalkeeper, 19 players, 1 referee, 11.7ms\n","19: 384x640 1 goalkeeper, 17 players, 11.7ms\n","Speed: 2.0ms preprocess, 11.7ms inference, 0.8ms postprocess per image at shape (1, 3, 384, 640)\n","\n","0: 384x640 1 ball, 1 goalkeeper, 17 players, 11.7ms\n","1: 384x640 1 goalkeeper, 19 players, 11.7ms\n","2: 384x640 1 ball, 1 goalkeeper, 19 players, 11.7ms\n","3: 384x640 1 ball, 1 goalkeeper, 20 players, 11.7ms\n","4: 384x640 1 goalkeeper, 20 players, 1 referee, 11.7ms\n","5: 384x640 1 goalkeeper, 20 players, 1 referee, 11.7ms\n","6: 384x640 1 goalkeeper, 20 players, 1 referee, 11.7ms\n","7: 384x640 1 goalkeeper, 19 players, 1 referee, 11.7ms\n","8: 384x640 1 ball, 1 goalkeeper, 19 players, 11.7ms\n","9: 384x640 1 ball, 1 goalkeeper, 19 players, 11.7ms\n","10: 384x640 1 goalkeeper, 20 players, 1 referee, 11.7ms\n","11: 384x640 1 goalkeeper, 20 players, 1 referee, 11.7ms\n","12: 384x640 1 goalkeeper, 21 players, 11.7ms\n","13: 384x640 1 goalkeeper, 21 players, 11.7ms\n","14: 384x640 1 ball, 1 goalkeeper, 21 players, 11.7ms\n","15: 384x640 1 goalkeeper, 20 players, 11.7ms\n","16: 384x640 1 goalkeeper, 18 players, 11.7ms\n","17: 384x640 1 goalkeeper, 18 players, 11.7ms\n","18: 384x640 1 ball, 1 goalkeeper, 18 players, 11.7ms\n","19: 384x640 1 ball, 1 goalkeeper, 19 players, 11.7ms\n","Speed: 1.9ms preprocess, 11.7ms inference, 0.8ms postprocess per image at shape (1, 3, 384, 640)\n","\n","0: 384x640 1 ball, 1 goalkeeper, 20 players, 11.7ms\n","1: 384x640 1 ball, 1 goalkeeper, 18 players, 11.7ms\n","2: 384x640 1 goalkeeper, 18 players, 11.7ms\n","3: 384x640 1 goalkeeper, 17 players, 11.7ms\n","4: 384x640 1 goalkeeper, 18 players, 11.7ms\n","5: 384x640 1 goalkeeper, 20 players, 11.7ms\n","6: 384x640 1 goalkeeper, 21 players, 11.7ms\n","7: 384x640 1 goalkeeper, 22 players, 11.7ms\n","8: 384x640 1 goalkeeper, 21 players, 11.7ms\n","9: 384x640 1 goalkeeper, 20 players, 11.7ms\n","10: 384x640 1 goalkeeper, 20 players, 11.7ms\n","11: 384x640 1 goalkeeper, 20 players, 11.7ms\n","12: 384x640 1 goalkeeper, 20 players, 11.7ms\n","13: 384x640 1 goalkeeper, 20 players, 11.7ms\n","14: 384x640 1 goalkeeper, 20 players, 11.7ms\n","15: 384x640 1 goalkeeper, 21 players, 11.7ms\n","16: 384x640 1 goalkeeper, 21 players, 11.7ms\n","17: 384x640 1 goalkeeper, 20 players, 11.7ms\n","18: 384x640 1 goalkeeper, 19 players, 11.7ms\n","19: 384x640 1 goalkeeper, 20 players, 11.7ms\n","Speed: 1.9ms preprocess, 11.7ms inference, 0.8ms postprocess per image at shape (1, 3, 384, 640)\n","\n","0: 384x640 1 goalkeeper, 20 players, 11.8ms\n","1: 384x640 1 goalkeeper, 21 players, 11.8ms\n","2: 384x640 1 goalkeeper, 19 players, 11.8ms\n","3: 384x640 1 goalkeeper, 19 players, 1 referee, 11.8ms\n","4: 384x640 1 goalkeeper, 19 players, 1 referee, 11.8ms\n","5: 384x640 1 goalkeeper, 20 players, 1 referee, 11.8ms\n","6: 384x640 1 goalkeeper, 21 players, 1 referee, 11.8ms\n","7: 384x640 1 goalkeeper, 20 players, 1 referee, 11.8ms\n","8: 384x640 1 goalkeeper, 21 players, 11.8ms\n","9: 384x640 1 goalkeeper, 21 players, 11.8ms\n","10: 384x640 1 goalkeeper, 20 players, 11.8ms\n","11: 384x640 1 ball, 1 goalkeeper, 21 players, 11.8ms\n","12: 384x640 1 goalkeeper, 20 players, 11.8ms\n","13: 384x640 1 goalkeeper, 21 players, 11.8ms\n","14: 384x640 1 goalkeeper, 22 players, 1 referee, 11.8ms\n","15: 384x640 1 goalkeeper, 21 players, 1 referee, 11.8ms\n","16: 384x640 1 goalkeeper, 21 players, 11.8ms\n","17: 384x640 1 ball, 1 goalkeeper, 20 players, 1 referee, 11.8ms\n","18: 384x640 1 goalkeeper, 19 players, 1 referee, 11.8ms\n","19: 384x640 1 goalkeeper, 19 players, 1 referee, 11.8ms\n","Speed: 1.9ms preprocess, 11.8ms inference, 0.8ms postprocess per image at shape (1, 3, 384, 640)\n","\n","0: 384x640 1 goalkeeper, 19 players, 2 referees, 11.8ms\n","1: 384x640 1 ball, 1 goalkeeper, 17 players, 2 referees, 11.8ms\n","2: 384x640 1 goalkeeper, 17 players, 1 referee, 11.8ms\n","3: 384x640 1 goalkeeper, 17 players, 1 referee, 11.8ms\n","4: 384x640 1 goalkeeper, 18 players, 2 referees, 11.8ms\n","5: 384x640 1 goalkeeper, 18 players, 2 referees, 11.8ms\n","6: 384x640 1 ball, 1 goalkeeper, 19 players, 2 referees, 11.8ms\n","7: 384x640 1 goalkeeper, 20 players, 2 referees, 11.8ms\n","8: 384x640 1 goalkeeper, 19 players, 2 referees, 11.8ms\n","9: 384x640 1 ball, 1 goalkeeper, 20 players, 2 referees, 11.8ms\n","10: 384x640 1 ball, 1 goalkeeper, 21 players, 2 referees, 11.8ms\n","11: 384x640 1 ball, 1 goalkeeper, 21 players, 2 referees, 11.8ms\n","12: 384x640 1 goalkeeper, 21 players, 2 referees, 11.8ms\n","13: 384x640 1 goalkeeper, 21 players, 2 referees, 11.8ms\n","14: 384x640 1 goalkeeper, 20 players, 2 referees, 11.8ms\n","15: 384x640 1 ball, 1 goalkeeper, 19 players, 3 referees, 11.8ms\n","16: 384x640 1 ball, 1 goalkeeper, 20 players, 3 referees, 11.8ms\n","17: 384x640 1 goalkeeper, 18 players, 3 referees, 11.8ms\n","18: 384x640 1 goalkeeper, 18 players, 2 referees, 11.8ms\n","19: 384x640 1 ball, 1 goalkeeper, 19 players, 2 referees, 11.8ms\n","Speed: 2.0ms preprocess, 11.8ms inference, 0.8ms postprocess per image at shape (1, 3, 384, 640)\n","\n","0: 384x640 1 ball, 1 goalkeeper, 19 players, 2 referees, 11.7ms\n","1: 384x640 1 ball, 1 goalkeeper, 19 players, 2 referees, 11.7ms\n","2: 384x640 1 goalkeeper, 18 players, 2 referees, 11.7ms\n","3: 384x640 1 ball, 1 goalkeeper, 19 players, 2 referees, 11.7ms\n","4: 384x640 1 ball, 1 goalkeeper, 22 players, 2 referees, 11.7ms\n","5: 384x640 1 goalkeeper, 21 players, 2 referees, 11.7ms\n","6: 384x640 1 goalkeeper, 19 players, 2 referees, 11.7ms\n","7: 384x640 1 ball, 1 goalkeeper, 19 players, 3 referees, 11.7ms\n","8: 384x640 1 ball, 1 goalkeeper, 19 players, 2 referees, 11.7ms\n","9: 384x640 1 goalkeeper, 19 players, 2 referees, 11.7ms\n","10: 384x640 2 goalkeepers, 18 players, 2 referees, 11.7ms\n","11: 384x640 1 ball, 1 goalkeeper, 17 players, 3 referees, 11.7ms\n","12: 384x640 1 goalkeeper, 19 players, 2 referees, 11.7ms\n","13: 384x640 1 goalkeeper, 20 players, 2 referees, 11.7ms\n","14: 384x640 1 goalkeeper, 20 players, 2 referees, 11.7ms\n","15: 384x640 1 goalkeeper, 20 players, 2 referees, 11.7ms\n","16: 384x640 1 goalkeeper, 20 players, 2 referees, 11.7ms\n","17: 384x640 1 goalkeeper, 21 players, 2 referees, 11.7ms\n","18: 384x640 1 goalkeeper, 20 players, 2 referees, 11.7ms\n","19: 384x640 1 goalkeeper, 20 players, 3 referees, 11.7ms\n","Speed: 1.9ms preprocess, 11.7ms inference, 0.8ms postprocess per image at shape (1, 3, 384, 640)\n","\n","0: 384x640 1 goalkeeper, 21 players, 3 referees, 11.7ms\n","1: 384x640 1 goalkeeper, 18 players, 3 referees, 11.7ms\n","2: 384x640 1 goalkeeper, 19 players, 3 referees, 11.7ms\n","3: 384x640 1 goalkeeper, 19 players, 3 referees, 11.7ms\n","4: 384x640 1 goalkeeper, 19 players, 3 referees, 11.7ms\n","5: 384x640 1 goalkeeper, 19 players, 3 referees, 11.7ms\n","6: 384x640 1 goalkeeper, 20 players, 3 referees, 11.7ms\n","7: 384x640 1 goalkeeper, 19 players, 3 referees, 11.7ms\n","8: 384x640 1 goalkeeper, 19 players, 3 referees, 11.7ms\n","9: 384x640 1 goalkeeper, 19 players, 3 referees, 11.7ms\n","10: 384x640 1 goalkeeper, 18 players, 3 referees, 11.7ms\n","11: 384x640 1 goalkeeper, 20 players, 3 referees, 11.7ms\n","12: 384x640 1 goalkeeper, 20 players, 3 referees, 11.7ms\n","13: 384x640 1 goalkeeper, 18 players, 3 referees, 11.7ms\n","14: 384x640 1 goalkeeper, 20 players, 3 referees, 11.7ms\n","15: 384x640 1 goalkeeper, 21 players, 3 referees, 11.7ms\n","16: 384x640 1 goalkeeper, 19 players, 3 referees, 11.7ms\n","17: 384x640 1 goalkeeper, 18 players, 3 referees, 11.7ms\n","18: 384x640 1 goalkeeper, 19 players, 3 referees, 11.7ms\n","19: 384x640 1 goalkeeper, 19 players, 2 referees, 11.7ms\n","Speed: 2.0ms preprocess, 11.7ms inference, 0.8ms postprocess per image at shape (1, 3, 384, 640)\n","\n","0: 384x640 1 goalkeeper, 20 players, 2 referees, 11.7ms\n","1: 384x640 1 goalkeeper, 20 players, 2 referees, 11.7ms\n","2: 384x640 1 goalkeeper, 19 players, 3 referees, 11.7ms\n","3: 384x640 1 goalkeeper, 20 players, 3 referees, 11.7ms\n","4: 384x640 1 goalkeeper, 19 players, 3 referees, 11.7ms\n","5: 384x640 1 goalkeeper, 20 players, 3 referees, 11.7ms\n","6: 384x640 1 goalkeeper, 20 players, 3 referees, 11.7ms\n","7: 384x640 1 goalkeeper, 20 players, 3 referees, 11.7ms\n","8: 384x640 1 goalkeeper, 22 players, 3 referees, 11.7ms\n","9: 384x640 1 goalkeeper, 20 players, 2 referees, 11.7ms\n","10: 384x640 1 goalkeeper, 19 players, 2 referees, 11.7ms\n","11: 384x640 1 ball, 1 goalkeeper, 20 players, 3 referees, 11.7ms\n","12: 384x640 1 ball, 1 goalkeeper, 20 players, 3 referees, 11.7ms\n","13: 384x640 1 ball, 1 goalkeeper, 20 players, 3 referees, 11.7ms\n","14: 384x640 1 ball, 1 goalkeeper, 20 players, 3 referees, 11.7ms\n","15: 384x640 1 goalkeeper, 17 players, 4 referees, 11.7ms\n","16: 384x640 1 goalkeeper, 19 players, 3 referees, 11.7ms\n","17: 384x640 1 goalkeeper, 20 players, 3 referees, 11.7ms\n","18: 384x640 1 ball, 1 goalkeeper, 20 players, 4 referees, 11.7ms\n","19: 384x640 1 goalkeeper, 20 players, 4 referees, 11.7ms\n","Speed: 1.9ms preprocess, 11.7ms inference, 0.8ms postprocess per image at shape (1, 3, 384, 640)\n","\n","0: 384x640 1 goalkeeper, 20 players, 3 referees, 11.7ms\n","1: 384x640 1 goalkeeper, 20 players, 3 referees, 11.7ms\n","2: 384x640 1 goalkeeper, 18 players, 3 referees, 11.7ms\n","3: 384x640 1 goalkeeper, 18 players, 3 referees, 11.7ms\n","4: 384x640 1 goalkeeper, 20 players, 3 referees, 11.7ms\n","5: 384x640 1 goalkeeper, 21 players, 2 referees, 11.7ms\n","6: 384x640 1 goalkeeper, 19 players, 2 referees, 11.7ms\n","7: 384x640 1 goalkeeper, 20 players, 1 referee, 11.7ms\n","8: 384x640 1 goalkeeper, 19 players, 3 referees, 11.7ms\n","9: 384x640 1 goalkeeper, 20 players, 3 referees, 11.7ms\n","10: 384x640 1 goalkeeper, 20 players, 3 referees, 11.7ms\n","11: 384x640 1 goalkeeper, 20 players, 3 referees, 11.7ms\n","12: 384x640 1 goalkeeper, 20 players, 3 referees, 11.7ms\n","13: 384x640 1 goalkeeper, 20 players, 3 referees, 11.7ms\n","14: 384x640 1 goalkeeper, 20 players, 3 referees, 11.7ms\n","15: 384x640 1 goalkeeper, 20 players, 3 referees, 11.7ms\n","16: 384x640 1 goalkeeper, 20 players, 4 referees, 11.7ms\n","17: 384x640 1 goalkeeper, 19 players, 3 referees, 11.7ms\n","18: 384x640 1 goalkeeper, 20 players, 3 referees, 11.7ms\n","19: 384x640 1 goalkeeper, 20 players, 3 referees, 11.7ms\n","Speed: 1.9ms preprocess, 11.7ms inference, 0.8ms postprocess per image at shape (1, 3, 384, 640)\n","\n","0: 384x640 1 goalkeeper, 19 players, 3 referees, 11.8ms\n","1: 384x640 1 goalkeeper, 19 players, 3 referees, 11.8ms\n","2: 384x640 1 goalkeeper, 19 players, 4 referees, 11.8ms\n","3: 384x640 1 goalkeeper, 20 players, 4 referees, 11.8ms\n","4: 384x640 1 goalkeeper, 20 players, 3 referees, 11.8ms\n","5: 384x640 1 goalkeeper, 20 players, 3 referees, 11.8ms\n","6: 384x640 1 goalkeeper, 19 players, 3 referees, 11.8ms\n","7: 384x640 1 goalkeeper, 19 players, 3 referees, 11.8ms\n","8: 384x640 1 goalkeeper, 18 players, 3 referees, 11.8ms\n","9: 384x640 1 goalkeeper, 18 players, 3 referees, 11.8ms\n","10: 384x640 1 goalkeeper, 18 players, 3 referees, 11.8ms\n","11: 384x640 1 goalkeeper, 19 players, 3 referees, 11.8ms\n","12: 384x640 1 goalkeeper, 21 players, 3 referees, 11.8ms\n","13: 384x640 1 goalkeeper, 20 players, 3 referees, 11.8ms\n","14: 384x640 1 goalkeeper, 20 players, 3 referees, 11.8ms\n","15: 384x640 1 goalkeeper, 20 players, 2 referees, 11.8ms\n","16: 384x640 1 goalkeeper, 20 players, 3 referees, 11.8ms\n","17: 384x640 1 goalkeeper, 20 players, 3 referees, 11.8ms\n","18: 384x640 1 goalkeeper, 20 players, 2 referees, 11.8ms\n","19: 384x640 1 ball, 1 goalkeeper, 20 players, 4 referees, 11.8ms\n","Speed: 1.9ms preprocess, 11.8ms inference, 0.8ms postprocess per image at shape (1, 3, 384, 640)\n","\n","0: 384x640 1 goalkeeper, 20 players, 3 referees, 11.6ms\n","1: 384x640 1 goalkeeper, 20 players, 1 referee, 11.6ms\n","2: 384x640 1 goalkeeper, 20 players, 1 referee, 11.6ms\n","3: 384x640 1 ball, 1 goalkeeper, 20 players, 1 referee, 11.6ms\n","4: 384x640 1 ball, 1 goalkeeper, 20 players, 1 referee, 11.6ms\n","5: 384x640 1 goalkeeper, 20 players, 1 referee, 11.6ms\n","6: 384x640 1 goalkeeper, 21 players, 1 referee, 11.6ms\n","7: 384x640 1 ball, 1 goalkeeper, 21 players, 2 referees, 11.6ms\n","8: 384x640 1 goalkeeper, 20 players, 2 referees, 11.6ms\n","9: 384x640 1 goalkeeper, 21 players, 2 referees, 11.6ms\n","10: 384x640 1 goalkeeper, 21 players, 2 referees, 11.6ms\n","11: 384x640 1 goalkeeper, 20 players, 3 referees, 11.6ms\n","12: 384x640 1 ball, 1 goalkeeper, 19 players, 2 referees, 11.6ms\n","13: 384x640 1 ball, 1 goalkeeper, 19 players, 3 referees, 11.6ms\n","14: 384x640 1 ball, 1 goalkeeper, 18 players, 3 referees, 11.6ms\n","15: 384x640 1 goalkeeper, 18 players, 3 referees, 11.6ms\n","16: 384x640 1 goalkeeper, 18 players, 3 referees, 11.6ms\n","17: 384x640 1 goalkeeper, 18 players, 3 referees, 11.6ms\n","18: 384x640 1 ball, 1 goalkeeper, 17 players, 3 referees, 11.6ms\n","19: 384x640 1 ball, 1 goalkeeper, 17 players, 3 referees, 11.6ms\n","Speed: 1.9ms preprocess, 11.6ms inference, 0.8ms postprocess per image at shape (1, 3, 384, 640)\n","\n","0: 384x640 1 goalkeeper, 18 players, 3 referees, 11.7ms\n","1: 384x640 1 goalkeeper, 19 players, 3 referees, 11.7ms\n","2: 384x640 1 goalkeeper, 19 players, 3 referees, 11.7ms\n","3: 384x640 1 goalkeeper, 19 players, 4 referees, 11.7ms\n","4: 384x640 1 goalkeeper, 18 players, 4 referees, 11.7ms\n","5: 384x640 1 goalkeeper, 18 players, 4 referees, 11.7ms\n","6: 384x640 1 goalkeeper, 18 players, 4 referees, 11.7ms\n","7: 384x640 1 ball, 1 goalkeeper, 18 players, 4 referees, 11.7ms\n","8: 384x640 1 ball, 1 goalkeeper, 18 players, 3 referees, 11.7ms\n","9: 384x640 1 goalkeeper, 18 players, 3 referees, 11.7ms\n","10: 384x640 1 goalkeeper, 18 players, 3 referees, 11.7ms\n","11: 384x640 1 goalkeeper, 17 players, 3 referees, 11.7ms\n","12: 384x640 1 goalkeeper, 18 players, 3 referees, 11.7ms\n","13: 384x640 1 goalkeeper, 18 players, 3 referees, 11.7ms\n","14: 384x640 1 goalkeeper, 19 players, 3 referees, 11.7ms\n","15: 384x640 1 goalkeeper, 19 players, 3 referees, 11.7ms\n","16: 384x640 1 goalkeeper, 20 players, 3 referees, 11.7ms\n","17: 384x640 1 goalkeeper, 20 players, 3 referees, 11.7ms\n","18: 384x640 1 goalkeeper, 20 players, 3 referees, 11.7ms\n","19: 384x640 1 goalkeeper, 19 players, 3 referees, 11.7ms\n","Speed: 1.9ms preprocess, 11.7ms inference, 0.8ms postprocess per image at shape (1, 3, 384, 640)\n","\n","0: 384x640 1 goalkeeper, 19 players, 3 referees, 11.7ms\n","1: 384x640 1 goalkeeper, 20 players, 3 referees, 11.7ms\n","2: 384x640 1 goalkeeper, 20 players, 4 referees, 11.7ms\n","3: 384x640 1 goalkeeper, 20 players, 4 referees, 11.7ms\n","4: 384x640 1 goalkeeper, 19 players, 4 referees, 11.7ms\n","5: 384x640 1 goalkeeper, 20 players, 2 referees, 11.7ms\n","6: 384x640 1 goalkeeper, 20 players, 3 referees, 11.7ms\n","7: 384x640 1 goalkeeper, 19 players, 3 referees, 11.7ms\n","8: 384x640 1 goalkeeper, 20 players, 3 referees, 11.7ms\n","9: 384x640 1 goalkeeper, 21 players, 2 referees, 11.7ms\n","10: 384x640 1 ball, 1 goalkeeper, 21 players, 2 referees, 11.7ms\n","11: 384x640 1 ball, 1 goalkeeper, 17 players, 2 referees, 11.7ms\n","12: 384x640 1 ball, 1 goalkeeper, 19 players, 3 referees, 11.7ms\n","13: 384x640 1 ball, 1 goalkeeper, 18 players, 3 referees, 11.7ms\n","14: 384x640 1 ball, 1 goalkeeper, 18 players, 3 referees, 11.7ms\n","15: 384x640 1 ball, 1 goalkeeper, 18 players, 3 referees, 11.7ms\n","16: 384x640 1 ball, 1 goalkeeper, 18 players, 3 referees, 11.7ms\n","17: 384x640 1 ball, 1 goalkeeper, 18 players, 4 referees, 11.7ms\n","18: 384x640 1 ball, 1 goalkeeper, 18 players, 4 referees, 11.7ms\n","19: 384x640 1 ball, 1 goalkeeper, 18 players, 3 referees, 11.7ms\n","Speed: 2.0ms preprocess, 11.7ms inference, 0.8ms postprocess per image at shape (1, 3, 384, 640)\n","\n","0: 384x640 1 goalkeeper, 18 players, 3 referees, 11.7ms\n","1: 384x640 1 goalkeeper, 17 players, 3 referees, 11.7ms\n","2: 384x640 1 goalkeeper, 17 players, 3 referees, 11.7ms\n","3: 384x640 1 goalkeeper, 18 players, 3 referees, 11.7ms\n","4: 384x640 1 goalkeeper, 18 players, 3 referees, 11.7ms\n","5: 384x640 1 goalkeeper, 17 players, 3 referees, 11.7ms\n","6: 384x640 1 goalkeeper, 18 players, 3 referees, 11.7ms\n","7: 384x640 1 goalkeeper, 19 players, 3 referees, 11.7ms\n","8: 384x640 1 goalkeeper, 18 players, 3 referees, 11.7ms\n","9: 384x640 1 goalkeeper, 18 players, 3 referees, 11.7ms\n","10: 384x640 1 goalkeeper, 18 players, 3 referees, 11.7ms\n","11: 384x640 1 goalkeeper, 18 players, 3 referees, 11.7ms\n","12: 384x640 1 ball, 1 goalkeeper, 19 players, 2 referees, 11.7ms\n","13: 384x640 1 goalkeeper, 20 players, 2 referees, 11.7ms\n","14: 384x640 1 ball, 1 goalkeeper, 19 players, 2 referees, 11.7ms\n","15: 384x640 1 goalkeeper, 19 players, 2 referees, 11.7ms\n","16: 384x640 1 ball, 1 goalkeeper, 18 players, 1 referee, 11.7ms\n","17: 384x640 1 goalkeeper, 18 players, 2 referees, 11.7ms\n","18: 384x640 1 ball, 1 goalkeeper, 19 players, 2 referees, 11.7ms\n","19: 384x640 1 goalkeeper, 20 players, 1 referee, 11.7ms\n","Speed: 1.9ms preprocess, 11.7ms inference, 0.8ms postprocess per image at shape (1, 3, 384, 640)\n","\n","0: 384x640 1 goalkeeper, 20 players, 1 referee, 11.7ms\n","1: 384x640 1 goalkeeper, 21 players, 2 referees, 11.7ms\n","2: 384x640 1 ball, 1 goalkeeper, 20 players, 3 referees, 11.7ms\n","3: 384x640 1 goalkeeper, 20 players, 3 referees, 11.7ms\n","4: 384x640 1 goalkeeper, 19 players, 3 referees, 11.7ms\n","5: 384x640 1 goalkeeper, 20 players, 3 referees, 11.7ms\n","6: 384x640 1 ball, 1 goalkeeper, 21 players, 3 referees, 11.7ms\n","7: 384x640 1 ball, 1 goalkeeper, 21 players, 3 referees, 11.7ms\n","8: 384x640 1 goalkeeper, 20 players, 3 referees, 11.7ms\n","9: 384x640 1 ball, 1 goalkeeper, 20 players, 3 referees, 11.7ms\n","10: 384x640 1 ball, 1 goalkeeper, 20 players, 3 referees, 11.7ms\n","11: 384x640 1 goalkeeper, 20 players, 3 referees, 11.7ms\n","12: 384x640 1 goalkeeper, 21 players, 3 referees, 11.7ms\n","13: 384x640 1 ball, 1 goalkeeper, 20 players, 3 referees, 11.7ms\n","14: 384x640 1 goalkeeper, 20 players, 3 referees, 11.7ms\n","15: 384x640 1 ball, 1 goalkeeper, 20 players, 3 referees, 11.7ms\n","16: 384x640 1 goalkeeper, 20 players, 3 referees, 11.7ms\n","17: 384x640 1 goalkeeper, 20 players, 3 referees, 11.7ms\n","18: 384x640 1 goalkeeper, 20 players, 3 referees, 11.7ms\n","19: 384x640 1 goalkeeper, 20 players, 3 referees, 11.7ms\n","Speed: 1.9ms preprocess, 11.7ms inference, 0.8ms postprocess per image at shape (1, 3, 384, 640)\n","\n","0: 384x640 1 goalkeeper, 20 players, 4 referees, 11.8ms\n","1: 384x640 1 goalkeeper, 20 players, 3 referees, 11.8ms\n","2: 384x640 1 goalkeeper, 20 players, 3 referees, 11.8ms\n","3: 384x640 1 goalkeeper, 20 players, 3 referees, 11.8ms\n","4: 384x640 1 goalkeeper, 20 players, 3 referees, 11.8ms\n","5: 384x640 1 goalkeeper, 20 players, 3 referees, 11.8ms\n","6: 384x640 1 goalkeeper, 20 players, 3 referees, 11.8ms\n","7: 384x640 2 goalkeepers, 21 players, 3 referees, 11.8ms\n","8: 384x640 1 goalkeeper, 20 players, 3 referees, 11.8ms\n","9: 384x640 1 ball, 1 goalkeeper, 20 players, 4 referees, 11.8ms\n","10: 384x640 1 ball, 1 goalkeeper, 20 players, 3 referees, 11.8ms\n","11: 384x640 1 ball, 2 goalkeepers, 20 players, 3 referees, 11.8ms\n","12: 384x640 1 ball, 2 goalkeepers, 20 players, 3 referees, 11.8ms\n","13: 384x640 1 ball, 1 goalkeeper, 19 players, 3 referees, 11.8ms\n","14: 384x640 1 ball, 2 goalkeepers, 19 players, 3 referees, 11.8ms\n","15: 384x640 1 ball, 1 goalkeeper, 22 players, 2 referees, 11.8ms\n","16: 384x640 1 ball, 1 goalkeeper, 22 players, 2 referees, 11.8ms\n","17: 384x640 1 ball, 1 goalkeeper, 22 players, 2 referees, 11.8ms\n","18: 384x640 1 ball, 2 goalkeepers, 21 players, 3 referees, 11.8ms\n","19: 384x640 1 goalkeeper, 21 players, 3 referees, 11.8ms\n","Speed: 2.0ms preprocess, 11.8ms inference, 0.8ms postprocess per image at shape (1, 3, 384, 640)\n","\n","0: 384x640 1 goalkeeper, 21 players, 3 referees, 11.8ms\n","1: 384x640 1 goalkeeper, 23 players, 2 referees, 11.8ms\n","2: 384x640 1 goalkeeper, 21 players, 3 referees, 11.8ms\n","3: 384x640 1 goalkeeper, 21 players, 3 referees, 11.8ms\n","4: 384x640 1 goalkeeper, 20 players, 3 referees, 11.8ms\n","5: 384x640 1 ball, 1 goalkeeper, 21 players, 3 referees, 11.8ms\n","6: 384x640 1 ball, 1 goalkeeper, 20 players, 3 referees, 11.8ms\n","7: 384x640 1 ball, 1 goalkeeper, 20 players, 3 referees, 11.8ms\n","8: 384x640 1 ball, 1 goalkeeper, 21 players, 3 referees, 11.8ms\n","9: 384x640 1 goalkeeper, 19 players, 3 referees, 11.8ms\n","10: 384x640 1 goalkeeper, 20 players, 3 referees, 11.8ms\n","11: 384x640 1 goalkeeper, 20 players, 3 referees, 11.8ms\n","12: 384x640 1 goalkeeper, 20 players, 3 referees, 11.8ms\n","13: 384x640 1 goalkeeper, 20 players, 3 referees, 11.8ms\n","14: 384x640 1 goalkeeper, 19 players, 3 referees, 11.8ms\n","15: 384x640 1 goalkeeper, 19 players, 3 referees, 11.8ms\n","16: 384x640 1 ball, 1 goalkeeper, 19 players, 3 referees, 11.8ms\n","17: 384x640 1 ball, 1 goalkeeper, 19 players, 3 referees, 11.8ms\n","18: 384x640 1 goalkeeper, 19 players, 3 referees, 11.8ms\n","19: 384x640 1 ball, 1 goalkeeper, 21 players, 3 referees, 11.8ms\n","Speed: 1.9ms preprocess, 11.8ms inference, 0.8ms postprocess per image at shape (1, 3, 384, 640)\n","\n","0: 384x640 1 goalkeeper, 21 players, 3 referees, 11.7ms\n","1: 384x640 1 ball, 1 goalkeeper, 20 players, 3 referees, 11.7ms\n","2: 384x640 1 ball, 1 goalkeeper, 21 players, 3 referees, 11.7ms\n","3: 384x640 1 goalkeeper, 21 players, 3 referees, 11.7ms\n","4: 384x640 1 goalkeeper, 20 players, 3 referees, 11.7ms\n","5: 384x640 1 goalkeeper, 19 players, 3 referees, 11.7ms\n","6: 384x640 1 goalkeeper, 19 players, 3 referees, 11.7ms\n","7: 384x640 1 ball, 1 goalkeeper, 20 players, 3 referees, 11.7ms\n","8: 384x640 1 ball, 1 goalkeeper, 20 players, 2 referees, 11.7ms\n","9: 384x640 1 goalkeeper, 20 players, 3 referees, 11.7ms\n","10: 384x640 1 goalkeeper, 20 players, 2 referees, 11.7ms\n","11: 384x640 1 goalkeeper, 20 players, 2 referees, 11.7ms\n","12: 384x640 1 ball, 1 goalkeeper, 20 players, 2 referees, 11.7ms\n","13: 384x640 1 ball, 19 players, 1 referee, 11.7ms\n","14: 384x640 1 ball, 1 goalkeeper, 19 players, 1 referee, 11.7ms\n","15: 384x640 1 goalkeeper, 21 players, 1 referee, 11.7ms\n","16: 384x640 1 ball, 1 goalkeeper, 21 players, 1 referee, 11.7ms\n","17: 384x640 1 ball, 1 goalkeeper, 20 players, 2 referees, 11.7ms\n","18: 384x640 1 ball, 1 goalkeeper, 19 players, 2 referees, 11.7ms\n","19: 384x640 1 goalkeeper, 19 players, 2 referees, 11.7ms\n","Speed: 1.9ms preprocess, 11.7ms inference, 0.8ms postprocess per image at shape (1, 3, 384, 640)\n","\n","0: 384x640 1 goalkeeper, 21 players, 2 referees, 11.7ms\n","1: 384x640 1 ball, 1 goalkeeper, 21 players, 2 referees, 11.7ms\n","2: 384x640 1 ball, 1 goalkeeper, 19 players, 2 referees, 11.7ms\n","3: 384x640 1 ball, 1 goalkeeper, 19 players, 2 referees, 11.7ms\n","4: 384x640 1 goalkeeper, 20 players, 2 referees, 11.7ms\n","5: 384x640 1 goalkeeper, 20 players, 2 referees, 11.7ms\n","6: 384x640 1 goalkeeper, 20 players, 2 referees, 11.7ms\n","7: 384x640 1 goalkeeper, 21 players, 2 referees, 11.7ms\n","8: 384x640 1 goalkeeper, 19 players, 2 referees, 11.7ms\n","9: 384x640 1 goalkeeper, 21 players, 2 referees, 11.7ms\n","10: 384x640 1 goalkeeper, 21 players, 2 referees, 11.7ms\n","11: 384x640 1 goalkeeper, 20 players, 2 referees, 11.7ms\n","12: 384x640 1 goalkeeper, 20 players, 2 referees, 11.7ms\n","13: 384x640 1 goalkeeper, 20 players, 2 referees, 11.7ms\n","14: 384x640 1 goalkeeper, 21 players, 2 referees, 11.7ms\n","15: 384x640 1 goalkeeper, 19 players, 2 referees, 11.7ms\n","16: 384x640 1 goalkeeper, 19 players, 2 referees, 11.7ms\n","17: 384x640 1 ball, 1 goalkeeper, 19 players, 2 referees, 11.7ms\n","18: 384x640 1 ball, 1 goalkeeper, 20 players, 2 referees, 11.7ms\n","19: 384x640 1 ball, 1 goalkeeper, 20 players, 2 referees, 11.7ms\n","Speed: 2.0ms preprocess, 11.7ms inference, 0.8ms postprocess per image at shape (1, 3, 384, 640)\n","\n","0: 384x640 1 goalkeeper, 20 players, 2 referees, 11.7ms\n","1: 384x640 1 goalkeeper, 20 players, 2 referees, 11.7ms\n","2: 384x640 1 goalkeeper, 21 players, 2 referees, 11.7ms\n","3: 384x640 1 goalkeeper, 21 players, 2 referees, 11.7ms\n","4: 384x640 1 ball, 1 goalkeeper, 20 players, 2 referees, 11.7ms\n","5: 384x640 1 ball, 1 goalkeeper, 20 players, 2 referees, 11.7ms\n","6: 384x640 1 ball, 1 goalkeeper, 20 players, 2 referees, 11.7ms\n","7: 384x640 1 goalkeeper, 20 players, 2 referees, 11.7ms\n","8: 384x640 1 goalkeeper, 20 players, 2 referees, 11.7ms\n","9: 384x640 1 goalkeeper, 21 players, 1 referee, 11.7ms\n","10: 384x640 1 ball, 1 goalkeeper, 22 players, 1 referee, 11.7ms\n","11: 384x640 1 ball, 1 goalkeeper, 20 players, 1 referee, 11.7ms\n","12: 384x640 1 ball, 1 goalkeeper, 20 players, 1 referee, 11.7ms\n","13: 384x640 1 ball, 1 goalkeeper, 19 players, 1 referee, 11.7ms\n","14: 384x640 1 goalkeeper, 21 players, 1 referee, 11.7ms\n","15: 384x640 1 goalkeeper, 21 players, 1 referee, 11.7ms\n","16: 384x640 1 goalkeeper, 21 players, 1 referee, 11.7ms\n","17: 384x640 1 goalkeeper, 22 players, 1 referee, 11.7ms\n","18: 384x640 1 goalkeeper, 20 players, 1 referee, 11.7ms\n","19: 384x640 1 goalkeeper, 20 players, 1 referee, 11.7ms\n","Speed: 1.9ms preprocess, 11.7ms inference, 0.8ms postprocess per image at shape (1, 3, 384, 640)\n","\n","0: 384x640 1 goalkeeper, 20 players, 1 referee, 11.7ms\n","1: 384x640 1 goalkeeper, 20 players, 1 referee, 11.7ms\n","2: 384x640 1 goalkeeper, 19 players, 2 referees, 11.7ms\n","3: 384x640 1 goalkeeper, 20 players, 2 referees, 11.7ms\n","4: 384x640 1 goalkeeper, 21 players, 2 referees, 11.7ms\n","5: 384x640 1 goalkeeper, 21 players, 3 referees, 11.7ms\n","6: 384x640 1 goalkeeper, 22 players, 3 referees, 11.7ms\n","7: 384x640 1 goalkeeper, 21 players, 3 referees, 11.7ms\n","8: 384x640 1 goalkeeper, 21 players, 3 referees, 11.7ms\n","9: 384x640 1 goalkeeper, 20 players, 2 referees, 11.7ms\n","10: 384x640 1 goalkeeper, 20 players, 3 referees, 11.7ms\n","11: 384x640 1 goalkeeper, 20 players, 2 referees, 11.7ms\n","12: 384x640 1 goalkeeper, 20 players, 2 referees, 11.7ms\n","13: 384x640 1 goalkeeper, 20 players, 3 referees, 11.7ms\n","14: 384x640 1 goalkeeper, 19 players, 3 referees, 11.7ms\n","15: 384x640 1 goalkeeper, 18 players, 3 referees, 11.7ms\n","16: 384x640 20 players, 3 referees, 11.7ms\n","17: 384x640 20 players, 3 referees, 11.7ms\n","18: 384x640 1 goalkeeper, 22 players, 3 referees, 11.7ms\n","19: 384x640 1 goalkeeper, 22 players, 3 referees, 11.7ms\n","Speed: 1.9ms preprocess, 11.7ms inference, 0.8ms postprocess per image at shape (1, 3, 384, 640)\n","\n","0: 384x640 1 goalkeeper, 21 players, 3 referees, 11.7ms\n","1: 384x640 1 goalkeeper, 22 players, 3 referees, 11.7ms\n","2: 384x640 1 goalkeeper, 19 players, 3 referees, 11.7ms\n","3: 384x640 1 goalkeeper, 18 players, 3 referees, 11.7ms\n","4: 384x640 1 goalkeeper, 20 players, 3 referees, 11.7ms\n","5: 384x640 1 goalkeeper, 18 players, 2 referees, 11.7ms\n","6: 384x640 1 goalkeeper, 20 players, 3 referees, 11.7ms\n","7: 384x640 1 goalkeeper, 19 players, 3 referees, 11.7ms\n","8: 384x640 1 goalkeeper, 20 players, 3 referees, 11.7ms\n","9: 384x640 1 goalkeeper, 19 players, 3 referees, 11.7ms\n","10: 384x640 1 ball, 1 goalkeeper, 20 players, 3 referees, 11.7ms\n","11: 384x640 1 ball, 20 players, 3 referees, 11.7ms\n","12: 384x640 1 goalkeeper, 19 players, 3 referees, 11.7ms\n","13: 384x640 1 goalkeeper, 20 players, 2 referees, 11.7ms\n","14: 384x640 1 goalkeeper, 21 players, 2 referees, 11.7ms\n","15: 384x640 1 goalkeeper, 19 players, 2 referees, 11.7ms\n","16: 384x640 1 goalkeeper, 19 players, 3 referees, 11.7ms\n","17: 384x640 1 goalkeeper, 19 players, 3 referees, 11.7ms\n","18: 384x640 1 goalkeeper, 17 players, 3 referees, 11.7ms\n","19: 384x640 1 goalkeeper, 18 players, 3 referees, 11.7ms\n","Speed: 1.9ms preprocess, 11.7ms inference, 0.8ms postprocess per image at shape (1, 3, 384, 640)\n","\n","0: 384x640 1 goalkeeper, 20 players, 3 referees, 11.7ms\n","1: 384x640 1 goalkeeper, 20 players, 3 referees, 11.7ms\n","2: 384x640 1 goalkeeper, 21 players, 3 referees, 11.7ms\n","3: 384x640 1 goalkeeper, 21 players, 2 referees, 11.7ms\n","4: 384x640 1 ball, 1 goalkeeper, 19 players, 2 referees, 11.7ms\n","5: 384x640 1 goalkeeper, 17 players, 2 referees, 11.7ms\n","6: 384x640 1 ball, 1 goalkeeper, 19 players, 2 referees, 11.7ms\n","7: 384x640 1 ball, 18 players, 2 referees, 11.7ms\n","8: 384x640 1 ball, 18 players, 2 referees, 11.7ms\n","9: 384x640 1 goalkeeper, 19 players, 3 referees, 11.7ms\n","10: 384x640 1 goalkeeper, 19 players, 3 referees, 11.7ms\n","11: 384x640 1 goalkeeper, 19 players, 3 referees, 11.7ms\n","12: 384x640 1 goalkeeper, 19 players, 3 referees, 11.7ms\n","13: 384x640 1 goalkeeper, 21 players, 3 referees, 11.7ms\n","14: 384x640 1 goalkeeper, 19 players, 3 referees, 11.7ms\n","15: 384x640 1 goalkeeper, 19 players, 3 referees, 11.7ms\n","16: 384x640 1 goalkeeper, 20 players, 3 referees, 11.7ms\n","17: 384x640 1 goalkeeper, 21 players, 3 referees, 11.7ms\n","18: 384x640 1 goalkeeper, 22 players, 3 referees, 11.7ms\n","19: 384x640 1 goalkeeper, 22 players, 3 referees, 11.7ms\n","Speed: 1.9ms preprocess, 11.7ms inference, 0.8ms postprocess per image at shape (1, 3, 384, 640)\n","\n","0: 384x640 1 goalkeeper, 21 players, 3 referees, 11.8ms\n","1: 384x640 1 goalkeeper, 22 players, 3 referees, 11.8ms\n","2: 384x640 1 ball, 1 goalkeeper, 21 players, 3 referees, 11.8ms\n","3: 384x640 1 goalkeeper, 20 players, 3 referees, 11.8ms\n","4: 384x640 1 ball, 1 goalkeeper, 20 players, 3 referees, 11.8ms\n","5: 384x640 1 ball, 1 goalkeeper, 20 players, 3 referees, 11.8ms\n","6: 384x640 1 goalkeeper, 20 players, 3 referees, 11.8ms\n","7: 384x640 1 ball, 1 goalkeeper, 19 players, 3 referees, 11.8ms\n","8: 384x640 1 goalkeeper, 20 players, 3 referees, 11.8ms\n","9: 384x640 1 goalkeeper, 20 players, 3 referees, 11.8ms\n","10: 384x640 1 goalkeeper, 20 players, 3 referees, 11.8ms\n","11: 384x640 1 goalkeeper, 20 players, 3 referees, 11.8ms\n","12: 384x640 1 goalkeeper, 20 players, 3 referees, 11.8ms\n","13: 384x640 1 goalkeeper, 20 players, 3 referees, 11.8ms\n","14: 384x640 1 goalkeeper, 21 players, 3 referees, 11.8ms\n","15: 384x640 1 goalkeeper, 20 players, 3 referees, 11.8ms\n","16: 384x640 1 goalkeeper, 20 players, 3 referees, 11.8ms\n","17: 384x640 1 ball, 1 goalkeeper, 20 players, 3 referees, 11.8ms\n","18: 384x640 1 goalkeeper, 20 players, 2 referees, 11.8ms\n","19: 384x640 1 ball, 1 goalkeeper, 20 players, 2 referees, 11.8ms\n","Speed: 2.1ms preprocess, 11.8ms inference, 0.8ms postprocess per image at shape (1, 3, 384, 640)\n","\n","0: 384x640 1 ball, 1 goalkeeper, 20 players, 2 referees, 11.8ms\n","1: 384x640 1 goalkeeper, 20 players, 2 referees, 11.8ms\n","2: 384x640 1 goalkeeper, 20 players, 2 referees, 11.8ms\n","3: 384x640 1 goalkeeper, 20 players, 2 referees, 11.8ms\n","4: 384x640 1 goalkeeper, 20 players, 2 referees, 11.8ms\n","5: 384x640 1 goalkeeper, 20 players, 2 referees, 11.8ms\n","6: 384x640 1 goalkeeper, 19 players, 3 referees, 11.8ms\n","7: 384x640 1 goalkeeper, 19 players, 3 referees, 11.8ms\n","8: 384x640 1 goalkeeper, 20 players, 3 referees, 11.8ms\n","9: 384x640 1 goalkeeper, 21 players, 3 referees, 11.8ms\n","10: 384x640 1 goalkeeper, 21 players, 3 referees, 11.8ms\n","11: 384x640 1 ball, 1 goalkeeper, 21 players, 3 referees, 11.8ms\n","12: 384x640 1 ball, 1 goalkeeper, 21 players, 3 referees, 11.8ms\n","13: 384x640 1 ball, 1 goalkeeper, 20 players, 3 referees, 11.8ms\n","14: 384x640 1 ball, 1 goalkeeper, 22 players, 3 referees, 11.8ms\n","15: 384x640 1 ball, 1 goalkeeper, 21 players, 3 referees, 11.8ms\n","16: 384x640 1 goalkeeper, 21 players, 3 referees, 11.8ms\n","17: 384x640 1 goalkeeper, 21 players, 3 referees, 11.8ms\n","18: 384x640 1 goalkeeper, 21 players, 3 referees, 11.8ms\n","19: 384x640 1 goalkeeper, 20 players, 3 referees, 11.8ms\n","Speed: 1.9ms preprocess, 11.8ms inference, 0.8ms postprocess per image at shape (1, 3, 384, 640)\n","\n","0: 384x640 1 goalkeeper, 20 players, 3 referees, 11.8ms\n","1: 384x640 1 goalkeeper, 20 players, 3 referees, 11.8ms\n","2: 384x640 1 goalkeeper, 21 players, 3 referees, 11.8ms\n","3: 384x640 1 goalkeeper, 22 players, 3 referees, 11.8ms\n","4: 384x640 1 goalkeeper, 21 players, 3 referees, 11.8ms\n","5: 384x640 1 ball, 1 goalkeeper, 22 players, 3 referees, 11.8ms\n","6: 384x640 1 goalkeeper, 21 players, 3 referees, 11.8ms\n","7: 384x640 1 ball, 1 goalkeeper, 21 players, 3 referees, 11.8ms\n","8: 384x640 1 ball, 1 goalkeeper, 21 players, 3 referees, 11.8ms\n","9: 384x640 1 ball, 1 goalkeeper, 21 players, 3 referees, 11.8ms\n","10: 384x640 2 goalkeepers, 22 players, 3 referees, 11.8ms\n","11: 384x640 2 goalkeepers, 22 players, 3 referees, 11.8ms\n","12: 384x640 2 goalkeepers, 21 players, 3 referees, 11.8ms\n","13: 384x640 1 ball, 1 goalkeeper, 21 players, 3 referees, 11.8ms\n","14: 384x640 1 ball, 1 goalkeeper, 21 players, 3 referees, 11.8ms\n","15: 384x640 1 ball, 1 goalkeeper, 21 players, 3 referees, 11.8ms\n","16: 384x640 1 ball, 1 goalkeeper, 20 players, 3 referees, 11.8ms\n","17: 384x640 1 ball, 1 goalkeeper, 19 players, 3 referees, 11.8ms\n","18: 384x640 1 ball, 1 goalkeeper, 20 players, 3 referees, 11.8ms\n","19: 384x640 1 ball, 1 goalkeeper, 20 players, 3 referees, 11.8ms\n","Speed: 1.9ms preprocess, 11.8ms inference, 0.8ms postprocess per image at shape (1, 3, 384, 640)\n","\n","0: 384x640 1 ball, 1 goalkeeper, 21 players, 3 referees, 17.1ms\n","1: 384x640 1 goalkeeper, 20 players, 3 referees, 17.1ms\n","2: 384x640 1 ball, 1 goalkeeper, 20 players, 3 referees, 17.1ms\n","3: 384x640 1 goalkeeper, 20 players, 3 referees, 17.1ms\n","4: 384x640 1 ball, 2 goalkeepers, 20 players, 3 referees, 17.1ms\n","5: 384x640 1 goalkeeper, 20 players, 3 referees, 17.1ms\n","6: 384x640 2 goalkeepers, 20 players, 3 referees, 17.1ms\n","7: 384x640 1 goalkeeper, 20 players, 3 referees, 17.1ms\n","8: 384x640 2 goalkeepers, 19 players, 3 referees, 17.1ms\n","9: 384x640 1 goalkeeper, 19 players, 3 referees, 17.1ms\n","Speed: 1.8ms preprocess, 17.1ms inference, 0.8ms postprocess per image at shape (1, 3, 384, 640)\n","OpenCV: FFMPEG: tag 0x44495658/'XVID' is not supported with codec id 12 and format 'mp4 / MP4 (MPEG-4 Part 14)'\n","OpenCV: FFMPEG: fallback to use tag 0x7634706d/'mp4v'\n","ffmpeg version 4.4.2-0ubuntu0.22.04.1 Copyright (c) 2000-2021 the FFmpeg developers\n","  built with gcc 11 (Ubuntu 11.2.0-19ubuntu1)\n","  configuration: --prefix=/usr --extra-version=0ubuntu0.22.04.1 --toolchain=hardened --libdir=/usr/lib/x86_64-linux-gnu --incdir=/usr/include/x86_64-linux-gnu --arch=amd64 --enable-gpl --disable-stripping --enable-gnutls --enable-ladspa --enable-libaom --enable-libass --enable-libbluray --enable-libbs2b --enable-libcaca --enable-libcdio --enable-libcodec2 --enable-libdav1d --enable-libflite --enable-libfontconfig --enable-libfreetype --enable-libfribidi --enable-libgme --enable-libgsm --enable-libjack --enable-libmp3lame --enable-libmysofa --enable-libopenjpeg --enable-libopenmpt --enable-libopus --enable-libpulse --enable-librabbitmq --enable-librubberband --enable-libshine --enable-libsnappy --enable-libsoxr --enable-libspeex --enable-libsrt --enable-libssh --enable-libtheora --enable-libtwolame --enable-libvidstab --enable-libvorbis --enable-libvpx --enable-libwebp --enable-libx265 --enable-libxml2 --enable-libxvid --enable-libzimg --enable-libzmq --enable-libzvbi --enable-lv2 --enable-omx --enable-openal --enable-opencl --enable-opengl --enable-sdl2 --enable-pocketsphinx --enable-librsvg --enable-libmfx --enable-libdc1394 --enable-libdrm --enable-libiec61883 --enable-chromaprint --enable-frei0r --enable-libx264 --enable-shared\n","  libavutil      56. 70.100 / 56. 70.100\n","  libavcodec     58.134.100 / 58.134.100\n","  libavformat    58. 76.100 / 58. 76.100\n","  libavdevice    58. 13.100 / 58. 13.100\n","  libavfilter     7.110.100 /  7.110.100\n","  libswscale      5.  9.100 /  5.  9.100\n","  libswresample   3.  9.100 /  3.  9.100\n","  libpostproc    55.  9.100 / 55.  9.100\n","Input #0, mov,mp4,m4a,3gp,3g2,mj2, from 'output_videos/output_video_573e61_9.mp4':\n","  Metadata:\n","    major_brand     : isom\n","    minor_version   : 512\n","    compatible_brands: isomiso2mp41\n","    encoder         : Lavf59.27.100\n","  Duration: 00:00:31.25, start: 0.000000, bitrate: 19859 kb/s\n","  Stream #0:0(und): Video: mpeg4 (Simple Profile) (mp4v / 0x7634706D), yuv420p, 1920x1080 [SAR 1:1 DAR 16:9], 19858 kb/s, 24 fps, 24 tbr, 12288 tbn, 24 tbc (default)\n","    Metadata:\n","      handler_name    : VideoHandler\n","      vendor_id       : [0][0][0][0]\n","Stream mapping:\n","  Stream #0:0 -> #0:0 (mpeg4 (native) -> h264 (libx264))\n","Press [q] to stop, [?] for help\n","\u001b[1;36m[libx264 @ 0x59b6184cfdc0] \u001b[0musing SAR=1/1\n","\u001b[1;36m[libx264 @ 0x59b6184cfdc0] \u001b[0musing cpu capabilities: MMX2 SSE2Fast SSSE3 SSE4.2 AVX FMA3 BMI2 AVX2 AVX512\n","\u001b[1;36m[libx264 @ 0x59b6184cfdc0] \u001b[0mprofile High, level 4.0, 4:2:0, 8-bit\n","\u001b[1;36m[libx264 @ 0x59b6184cfdc0] \u001b[0m264 - core 163 r3060 5db6aa6 - H.264/MPEG-4 AVC codec - Copyleft 2003-2021 - http://www.videolan.org/x264.html - options: cabac=1 ref=3 deblock=1:0:0 analyse=0x3:0x113 me=hex subme=7 psy=1 psy_rd=1.00:0.00 mixed_ref=1 me_range=16 chroma_me=1 trellis=1 8x8dct=1 cqm=0 deadzone=21,11 fast_pskip=1 chroma_qp_offset=-2 threads=18 lookahead_threads=3 sliced_threads=0 nr=0 decimate=1 interlaced=0 bluray_compat=0 constrained_intra=0 bframes=3 b_pyramid=2 b_adapt=1 b_bias=0 direct=1 weightb=1 open_gop=0 weightp=2 keyint=250 keyint_min=24 scenecut=40 intra_refresh=0 rc_lookahead=40 rc=crf mbtree=1 crf=20.0 qcomp=0.60 qpmin=0 qpmax=69 qpstep=4 ip_ratio=1.40 aq=1:1.00\n","Output #0, mp4, to 'output_videos/output_video_573e61_9_com.mp4':\n","  Metadata:\n","    major_brand     : isom\n","    minor_version   : 512\n","    compatible_brands: isomiso2mp41\n","    encoder         : Lavf58.76.100\n","  Stream #0:0(und): Video: h264 (avc1 / 0x31637661), yuv420p(progressive), 1920x1080 [SAR 1:1 DAR 16:9], q=2-31, 24 fps, 12288 tbn (default)\n","    Metadata:\n","      handler_name    : VideoHandler\n","      vendor_id       : [0][0][0][0]\n","      encoder         : Lavc58.134.100 libx264\n","    Side data:\n","      cpb: bitrate max/min/avg: 0/0/0 buffer size: 0 vbv_delay: N/A\n","frame=  750 fps= 38 q=-1.0 Lsize=   37020kB time=00:00:31.12 bitrate=9743.4kbits/s speed=1.59x    \n","video:37011kB audio:0kB subtitle:0kB other streams:0kB global headers:0kB muxing overhead: 0.022602%\n","\u001b[1;36m[libx264 @ 0x59b6184cfdc0] \u001b[0mframe I:3     Avg QP:17.15  size:300032\n","\u001b[1;36m[libx264 @ 0x59b6184cfdc0] \u001b[0mframe P:427   Avg QP:19.34  size: 74388\n","\u001b[1;36m[libx264 @ 0x59b6184cfdc0] \u001b[0mframe B:320   Avg QP:23.84  size: 16360\n","\u001b[1;36m[libx264 @ 0x59b6184cfdc0] \u001b[0mconsecutive B-frames: 38.8%  9.9%  9.2% 42.1%\n","\u001b[1;36m[libx264 @ 0x59b6184cfdc0] \u001b[0mmb I  I16..4: 15.5% 68.9% 15.6%\n","\u001b[1;36m[libx264 @ 0x59b6184cfdc0] \u001b[0mmb P  I16..4:  1.2%  5.8%  0.6%  P16..4: 40.9% 16.4% 12.7%  0.0%  0.0%    skip:22.4%\n","\u001b[1;36m[libx264 @ 0x59b6184cfdc0] \u001b[0mmb B  I16..4:  0.4%  3.0%  0.0%  B16..8: 44.6%  6.5%  1.7%  direct: 1.9%  skip:41.8%  L0:48.1% L1:33.8% BI:18.1%\n","\u001b[1;36m[libx264 @ 0x59b6184cfdc0] \u001b[0m8x8 transform intra:78.0% inter:74.2%\n","\u001b[1;36m[libx264 @ 0x59b6184cfdc0] \u001b[0mcoded y,uvDC,uvAC intra: 57.5% 45.9% 15.8% inter: 25.9% 19.8% 2.4%\n","\u001b[1;36m[libx264 @ 0x59b6184cfdc0] \u001b[0mi16 v,h,dc,p: 23% 37% 35%  5%\n","\u001b[1;36m[libx264 @ 0x59b6184cfdc0] \u001b[0mi8 v,h,dc,ddl,ddr,vr,hd,vl,hu: 16% 31% 42%  2%  1%  1%  2%  1%  3%\n","\u001b[1;36m[libx264 @ 0x59b6184cfdc0] \u001b[0mi4 v,h,dc,ddl,ddr,vr,hd,vl,hu: 25% 29% 17%  4%  5%  5%  5%  5%  5%\n","\u001b[1;36m[libx264 @ 0x59b6184cfdc0] \u001b[0mi8c dc,h,v,p: 49% 31% 17%  3%\n","\u001b[1;36m[libx264 @ 0x59b6184cfdc0] \u001b[0mWeighted P-Frames: Y:0.2% UV:0.0%\n","\u001b[1;36m[libx264 @ 0x59b6184cfdc0] \u001b[0mref P L0: 71.8% 11.1% 13.2%  3.9%  0.0%\n","\u001b[1;36m[libx264 @ 0x59b6184cfdc0] \u001b[0mref B L0: 88.8%  9.6%  1.6%\n","\u001b[1;36m[libx264 @ 0x59b6184cfdc0] \u001b[0mref B L1: 97.1%  2.9%\n","\u001b[1;36m[libx264 @ 0x59b6184cfdc0] \u001b[0mkb/s:9702.10\n","\u001b[34m  Stopping...\u001b[0m\n","Exception in callback _HandlerDelegate.execute.<locals>.<lambda>(<Task cancell.../web.py:1742>>) at /usr/local/lib/python3.10/dist-packages/tornado/web.py:2434\n","handle: <Handle _HandlerDelegate.execute.<locals>.<lambda>(<Task cancell.../web.py:1742>>) at /usr/local/lib/python3.10/dist-packages/tornado/web.py:2434>\n","Traceback (most recent call last):\n","  File \"/usr/local/lib/python3.10/dist-packages/tornado/web.py\", line 1786, in _execute\n","    result = await result\n","  File \"/usr/local/lib/python3.10/dist-packages/tornado/web.py\", line 2756, in get\n","    await self.flush()\n","asyncio.exceptions.CancelledError\n","\n","During handling of the above exception, another exception occurred:\n","\n","Traceback (most recent call last):\n","  File \"/usr/lib/python3.10/asyncio/events.py\", line 80, in _run\n","    self._context.run(self._callback, *self._args)\n","  File \"/usr/local/lib/python3.10/dist-packages/tornado/web.py\", line 2434, in <lambda>\n","    fut.add_done_callback(lambda f: f.result())\n","asyncio.exceptions.CancelledError\n","Exception in callback _HandlerDelegate.execute.<locals>.<lambda>(<Task cancell.../web.py:1742>>) at /usr/local/lib/python3.10/dist-packages/tornado/web.py:2434\n","handle: <Handle _HandlerDelegate.execute.<locals>.<lambda>(<Task cancell.../web.py:1742>>) at /usr/local/lib/python3.10/dist-packages/tornado/web.py:2434>\n","Traceback (most recent call last):\n","  File \"/usr/local/lib/python3.10/dist-packages/tornado/web.py\", line 1786, in _execute\n","    result = await result\n","  File \"/usr/local/lib/python3.10/dist-packages/tornado/web.py\", line 2756, in get\n","    await self.flush()\n","asyncio.exceptions.CancelledError\n","\n","During handling of the above exception, another exception occurred:\n","\n","Traceback (most recent call last):\n","  File \"/usr/lib/python3.10/asyncio/events.py\", line 80, in _run\n","    self._context.run(self._callback, *self._args)\n","  File \"/usr/local/lib/python3.10/dist-packages/tornado/web.py\", line 2434, in <lambda>\n","    fut.add_done_callback(lambda f: f.result())\n","asyncio.exceptions.CancelledError\n","Exception in callback _HandlerDelegate.execute.<locals>.<lambda>(<Task cancell.../web.py:1742>>) at /usr/local/lib/python3.10/dist-packages/tornado/web.py:2434\n","handle: <Handle _HandlerDelegate.execute.<locals>.<lambda>(<Task cancell.../web.py:1742>>) at /usr/local/lib/python3.10/dist-packages/tornado/web.py:2434>\n","Traceback (most recent call last):\n","  File \"/usr/local/lib/python3.10/dist-packages/tornado/web.py\", line 1786, in _execute\n","    result = await result\n","  File \"/usr/local/lib/python3.10/dist-packages/tornado/web.py\", line 2756, in get\n","    await self.flush()\n","asyncio.exceptions.CancelledError\n","\n","During handling of the above exception, another exception occurred:\n","\n","Traceback (most recent call last):\n","  File \"/usr/lib/python3.10/asyncio/events.py\", line 80, in _run\n","    self._context.run(self._callback, *self._args)\n","  File \"/usr/local/lib/python3.10/dist-packages/tornado/web.py\", line 2434, in <lambda>\n","    fut.add_done_callback(lambda f: f.result())\n","asyncio.exceptions.CancelledError\n","Exception in callback _HandlerDelegate.execute.<locals>.<lambda>(<Task cancell.../web.py:1742>>) at /usr/local/lib/python3.10/dist-packages/tornado/web.py:2434\n","handle: <Handle _HandlerDelegate.execute.<locals>.<lambda>(<Task cancell.../web.py:1742>>) at /usr/local/lib/python3.10/dist-packages/tornado/web.py:2434>\n","Traceback (most recent call last):\n","  File \"/usr/local/lib/python3.10/dist-packages/tornado/web.py\", line 1786, in _execute\n","    result = await result\n","  File \"/usr/local/lib/python3.10/dist-packages/tornado/web.py\", line 2756, in get\n","    await self.flush()\n","asyncio.exceptions.CancelledError\n","\n","During handling of the above exception, another exception occurred:\n","\n","Traceback (most recent call last):\n","  File \"/usr/lib/python3.10/asyncio/events.py\", line 80, in _run\n","    self._context.run(self._callback, *self._args)\n","  File \"/usr/local/lib/python3.10/dist-packages/tornado/web.py\", line 2434, in <lambda>\n","    fut.add_done_callback(lambda f: f.result())\n","asyncio.exceptions.CancelledError\n","^C\n"]}]},{"cell_type":"code","source":[],"metadata":{"id":"ULW62VHqzifp"},"execution_count":null,"outputs":[]}]}